<?xml version="1.0" encoding="UTF-8" standalone="no"?>
<svg
   xmlns:dc="http://purl.org/dc/elements/1.1/"
   xmlns:cc="http://creativecommons.org/ns#"
   xmlns:rdf="http://www.w3.org/1999/02/22-rdf-syntax-ns#"
   xmlns:svg="http://www.w3.org/2000/svg"
   xmlns="http://www.w3.org/2000/svg"
   xmlns:sodipodi="http://sodipodi.sourceforge.net/DTD/sodipodi-0.dtd"
   xmlns:inkscape="http://www.inkscape.org/namespaces/inkscape"
   width="39.369999mm"
   height="37.084mm"
   viewBox="0 0 39.369999 37.084"
   version="1.1"
   id="svg8"
   sodipodi:docname="MercenaryCruiser.svg"
   inkscape:version="1.0.2 (e86c870879, 2021-01-15, custom)">
  <defs
     id="defs2" />
  <sodipodi:namedview
     id="base"
     pagecolor="#ffffff"
     bordercolor="#666666"
     borderopacity="1.0"
     inkscape:pageopacity="0.0"
     inkscape:pageshadow="2"
     inkscape:zoom="3.959798"
     inkscape:cx="68.986634"
     inkscape:cy="47.880482"
     inkscape:document-units="mm"
     inkscape:current-layer="layer3"
     inkscape:document-rotation="0"
     showgrid="false"
     fit-margin-top="0"
     fit-margin-left="0"
     fit-margin-right="0"
     fit-margin-bottom="0"
     inkscape:object-paths="true"
     inkscape:snap-intersection-paths="true"
     inkscape:snap-object-midpoints="true"
     inkscape:window-width="3440"
     inkscape:window-height="1377"
     inkscape:window-x="1072"
     inkscape:window-y="-8"
     inkscape:window-maximized="1" />
  <metadata
     id="metadata5">
    <rdf:RDF>
      <cc:Work
         rdf:about="">
        <dc:format>image/svg+xml</dc:format>
        <dc:type
           rdf:resource="http://purl.org/dc/dcmitype/StillImage" />
        <dc:title></dc:title>
      </cc:Work>
    </rdf:RDF>
  </metadata>
  <g
     inkscape:groupmode="layer"
     id="layer2"
     inkscape:label="Layer 2"
     style="display:inline;opacity:1">
    <path
       id="path849"
       style="fill:#ffff00;fill-opacity:0.995984;stroke-width:0.3;stroke-linecap:round;stroke-linejoin:round;paint-order:markers fill stroke"
       d="m 3.0269274,18.722427 c -1.455e-4,8.561521 6.9403748,15.502042 15.5018966,15.501896 2.799879,-9.9e-5 5.547459,-0.758514 7.950935,-2.194698 V 5.4152307 C 24.076231,3.9792285 21.328654,3.2209909 18.528824,3.2210491 9.9675043,3.2209035 3.0270676,10.161109 3.0269274,18.722427 Z"
       sodipodi:nodetypes="cccccc" />
  </g>
  <g
     inkscape:groupmode="layer"
     id="layer3"
     inkscape:label="Layer 3"
     style="display:inline;opacity:1">
    <path
       style="fill:#333333;stroke:#000000;stroke-width:0.264583px;stroke-linecap:round;stroke-linejoin:round;stroke-opacity:1;paint-order:markers fill stroke"
       d="M 26.479759,32.029625 34.497846,18.722427 26.479759,5.4152298 Z"
       id="path1018" />
    <path
       style="fill:none;stroke:#000000;stroke-width:0.264583px;stroke-linecap:round;stroke-linejoin:round;stroke-opacity:1;paint-order:markers fill stroke"
       d="M 26.479759,32.029625 V 5.4152308 l 8.018087,13.3071972 z"
       id="path874" />
    <path
       id="rect883-8"
       style="display:inline;opacity:1;fill:#b3b3b3;fill-opacity:0.8;stroke-width:0.336214;stroke-linecap:round;stroke-linejoin:round;paint-order:markers fill stroke"
       d="m 6.4448064,23.935029 c 1.897911,1.137275 4.3945576,0.837588 6.7019176,0.992187 V 9.7358945 c -2.712453,0.06411 -5.1069148,0.4154145 -6.7019176,1.9373505 z"
       sodipodi:nodetypes="ccccc" />
    <path
       id="path923"
       style="fill:#782121;fill-opacity:0.95;stroke:#000000;stroke-width:0.264583px;stroke-linecap:round;stroke-linejoin:round;stroke-opacity:1;paint-order:markers fill stroke"
       d="m 3.0269274,18.722427 c -6.27e-5,3.674853 1.281159,7.048992 3.417879,9.705868 v -9.737907 z" />
    <path
       id="path928"
       style="fill:#b3b3b3;fill-opacity:0.8;stroke:#000000;stroke-width:0.264583px;stroke-linecap:round;stroke-linejoin:round;stroke-opacity:1;paint-order:markers fill stroke"
       d="m 3.0269274,18.722427 3.417879,-0.03204 V 9.0170765 C 4.3081523,11.673833 3.0269875,15.047729 3.0269274,18.722427 Z" />
    <path
       id="path938"
       style="fill:#777777;fill-opacity:0.9;stroke:#000000;stroke-width:0.264583px;stroke-linecap:round;stroke-linejoin:round;stroke-opacity:1;paint-order:markers fill stroke"
       d="m 13.146724,5.7686955 h 3.984769 V 3.2866763 c -1.369624,0.122428 -2.688851,0.419518 -3.932576,0.8748818 z" />
    <path
       id="path943"
       style="fill:#b3b3b3;fill-opacity:0.8;stroke:#000000;stroke-width:0.264583px;stroke-linecap:round;stroke-linejoin:round;stroke-opacity:1;paint-order:markers fill stroke"
       d="m 13.146724,27.777688 0.05219,5.506124 c 1.243747,0.455384 2.562921,0.752449 3.932576,0.874882 v -5.313371 z" />
    <path
       style="fill:#333333;fill-opacity:0.9;stroke:#000000;stroke-width:0.264583px;stroke-linecap:round;stroke-linejoin:round;stroke-opacity:1;paint-order:markers fill stroke"
       d="m 17.131493,28.845323 v -5.430012 l -3.984769,-0.188988 v 4.551365 z"
       id="path948" />
    <path
       style="fill:#777777;fill-opacity:0.9;stroke:#000000;stroke-width:0.264583px;stroke-linecap:round;stroke-linejoin:round;stroke-opacity:1;paint-order:markers fill stroke"
       d="M 17.131493,23.415311 V 10.753109 l -3.984769,-0.188987 v 12.662201 z"
       id="path950" />
    <path
       style="fill:#782121;fill-opacity:0.95;stroke:#000000;stroke-width:0.264583px;stroke-linecap:round;stroke-linejoin:round;stroke-opacity:1;paint-order:markers fill stroke"
       d="m 13.146724,5.7686958 v 4.7954262 l 3.984769,0.188987 V 5.7686958 Z"
       id="path952" />
    <path
       id="path956"
       style="fill:#b3b3b3;fill-opacity:0.8;stroke:#000000;stroke-width:0.264583px;stroke-linecap:round;stroke-linejoin:round;stroke-opacity:1;paint-order:markers fill stroke"
       d="m 17.131493,8.7214875 5.406389,0.425297 V 3.7496971 C 21.236093,3.4011827 19.8887,3.22102 18.528824,3.2210491 c -0.47131,-8e-6 -0.936732,0.024447 -1.397331,0.065627 z" />
    <path
       id="path961"
       style="fill:#333333;fill-opacity:0.9;stroke:#000000;stroke-width:0.264583px;stroke-linecap:round;stroke-linejoin:round;stroke-opacity:1;paint-order:markers fill stroke"
       d="m 17.131493,34.158694 c 0.460609,0.04117 0.926009,0.06564 1.397331,0.06563 1.356351,-4.8e-5 2.700093,-0.179769 3.998722,-0.526583 l 0.01033,-2.48822 v -2.364197 h -5.406388 z" />
    <path
       style="fill:#ececec;fill-opacity:0.7;stroke:#000000;stroke-width:0.264583px;stroke-linecap:round;stroke-linejoin:round;stroke-opacity:1;paint-order:markers fill stroke"
       d="M 22.537882,28.845323 H 17.131493 V 8.7214875 l 5.406389,0.425297 z"
       id="path977" />
    <path
       id="path981"
       style="fill:#777777;fill-opacity:0.9;stroke:#000000;stroke-width:0.264583px;stroke-linecap:round;stroke-linejoin:round;stroke-opacity:1;paint-order:markers fill stroke"
       d="m 22.527546,33.698257 c 1.382144,-0.369096 2.713021,-0.928159 3.952213,-1.668632 v -2.401404 l -3.941361,1.488281 z" />
    <path
       id="path986"
       style="fill:#ececec;fill-opacity:0.7;stroke:#000000;stroke-width:0.264583px;stroke-linecap:round;stroke-linejoin:round;stroke-opacity:1;paint-order:markers fill stroke"
       d="m 22.640718,6.7955064 3.839041,1.0288801 V 5.4152307 C 25.277995,4.6972283 23.990434,4.1487232 22.65312,3.7796718 Z" />
    <path
       style="fill:#b3b3b3;fill-opacity:0.8;stroke:#000000;stroke-width:0.264583px;stroke-linecap:round;stroke-linejoin:round;stroke-opacity:1;paint-order:markers fill stroke"
       d="m 26.479759,29.628221 -3.941361,1.488281 -5.29e-4,-9.118602 3.941877,-0.141741 z"
       id="path991" />
    <path
       style="fill:#333333;fill-opacity:0.9;stroke:#000000;stroke-width:0.264583px;stroke-linecap:round;stroke-linejoin:round;stroke-opacity:1;paint-order:markers fill stroke"
       d="m 22.537882,21.9979 3.941864,-0.141741 1.3e-5,-14.0317735 -3.839041,-1.0288787 z"
       id="path993" />
    <path
       id="path997"
       style="fill:#333333;fill-opacity:0.9;stroke:#000000;stroke-width:0.264583px;stroke-linecap:round;stroke-linejoin:round;stroke-opacity:1;paint-order:markers fill stroke"
       d="m 6.4448064,28.428295 c 1.74084,2.164623 4.0494686,3.852673 6.7019176,4.834846 v -8.335925 c -2.30736,-0.154599 -4.8040066,0.145088 -6.7019176,-0.992187 z"
       sodipodi:nodetypes="ccccc" />
    <path
       id="path1002"
       style="fill:#ececec;fill-opacity:0.7;stroke:#000000;stroke-width:0.264583px;stroke-linecap:round;stroke-linejoin:round;stroke-opacity:1;paint-order:markers fill stroke"
       d="M 6.4448064,11.673245 C 8.6198592,9.9491515 10.877845,9.7428565 13.146724,9.7358945 V 4.18223 C 10.494276,5.1643872 8.1856581,6.8524685 6.4448064,9.0170775 Z"
       sodipodi:nodetypes="ccccc" />
    <path
       style="fill:#4d4d4d;stroke:#000000;stroke-width:0.264583px;stroke-linecap:round;stroke-linejoin:round;stroke-opacity:1;paint-order:markers fill stroke"
       d="m 34.497846,18.722428 -8.018087,11.659803 -2e-6,-1.804069 8.018089,-9.855734 -8.018087,8.352342 v -1.904295 l 8.018087,-6.448047 -8.018087,4.710795 -1.3e-5,-2.002287 8.0181,-2.708508 -8.018087,-2.390196 v -1.351408 l 8.018087,3.741603 -8.018087,-4.93636 v -1.119454 l 8.018087,6.055815 -8.018087,-7.431153 -2e-6,-1.3886125 8.018089,8.8197655 -8.018088,-10.0245645 1e-6,-1.243491 8.018087,11.2680545"
       id="path1014"
       sodipodi:nodetypes="cccccccccccccccccccccc" />
  </g>
  <g
     inkscape:groupmode="layer"
     id="layer4"
     inkscape:label="Layer 4"
     style="display:inline">
    <g
       id="g1153"
       transform="rotate(-90,17.723612,19.440583)">
      <path
         style="fill:#b3b3b3;fill-opacity:1;stroke:#000000;stroke-width:0.264583px;stroke-linecap:butt;stroke-linejoin:miter;stroke-opacity:1"
         d="m 16.016741,18.827939 v 3.661644 l 0.94494,1.228423 h 2.964403 l 1.033226,-1.19669 v -3.717001 z"
         id="path1023"
         sodipodi:nodetypes="ccccccc" />
      <path
         style="fill:#1a1a1a;stroke:#000000;stroke-width:0.264583px;stroke-linecap:butt;stroke-linejoin:miter;stroke-opacity:1"
         d="M 16.843564,17.859 16.016741,18.827939 20.95931,18.804319 20.221726,17.859 Z"
         id="path1025"
         sodipodi:nodetypes="ccccc" />
      <path
         style="fill:#333333;stroke:#000000;stroke-width:0.264583px;stroke-linecap:butt;stroke-linejoin:miter;stroke-opacity:1"
         d="m 16.961681,23.718006 v 3.910981 H 19.926 v -3.910981 z"
         id="path1027"
         sodipodi:nodetypes="ccccc" />
      <path
         style="fill:#b3b3b3;stroke:#000000;stroke-width:0.264583px;stroke-linecap:butt;stroke-linejoin:miter;stroke-opacity:1"
         d="m 16.253,28.514317 -0.437059,0.40086 v 4.594775 l 0.314424,0.544598 h 4.764631 l 0.336797,-0.583351 v -4.556022 l -0.468292,-0.40086"
         id="path1031"
         sodipodi:nodetypes="cccccccc" />
      <path
         style="fill:#4d4d4d;stroke:#000000;stroke-width:0.264583px;stroke-linecap:butt;stroke-linejoin:miter;stroke-opacity:1"
         d="m 15.815941,32.647694 h 5.415852 v 0.823505 l -0.336798,0.583351 h -4.76463 l -0.314424,-0.544598 z"
         id="path1033" />
      <path
         style="fill:#1a1a1a;stroke:#000000;stroke-width:0.264583px;stroke-linecap:butt;stroke-linejoin:miter;stroke-opacity:1"
         d="m 17.091611,32.647694 v -1.287481 h 2.69308 v 1.287481 z"
         id="path1035" />
      <path
         style="fill:#808080;stroke:#000000;stroke-width:0.264583px;stroke-linecap:butt;stroke-linejoin:miter;stroke-opacity:1"
         d="m 17.091611,31.360213 h -0.307106 v -0.708708 h 3.389974 V 31.36 H 19.785 Z"
         id="path1037"
         sodipodi:nodetypes="ccccccc" />
      <path
         style="fill:#b3b3b3;stroke:#000000;stroke-width:0.264583px;stroke-linecap:butt;stroke-linejoin:miter;stroke-opacity:1"
         d="m 16.130365,34.05455 v 1.542409 H 20.776 V 34.05455 Z"
         id="path1039"
         sodipodi:nodetypes="ccccc" />
      <path
         style="fill:#333333;stroke:#000000;stroke-width:0.264583px;stroke-linecap:butt;stroke-linejoin:miter;stroke-opacity:1"
         d="m 16.477399,36.332961 v -0.736002 h 3.992374 v 0.759624 z"
         id="path1041" />
      <path
         style="fill:#b3b3b3;stroke:#000000;stroke-width:0.264583px;stroke-linecap:butt;stroke-linejoin:miter;stroke-opacity:1"
         d="m 16.477399,36.332961 h -0.448846 v 1.322917 H 20.91862 V 36.357 h -0.448847 z"
         id="path1043"
         sodipodi:nodetypes="ccccccc" />
      <path
         style="fill:#666666;stroke:#000000;stroke-width:0.264583px;stroke-linecap:butt;stroke-linejoin:miter;stroke-opacity:1"
         d="m 16.938206,37.655878 -0.63087,1.0927 h 4.305826 l -0.63087,-1.0927 z"
         id="path1045" />
      <path
         style="fill:#1a1a1a;stroke:#000000;stroke-width:0.264583px;stroke-linecap:butt;stroke-linejoin:miter;stroke-opacity:1"
         d="m 17.781776,27.628987 v -1.319643 h 1.309366 v 1.319643 z"
         id="path1047"
         sodipodi:nodetypes="ccccc" />
      <path
         style="fill:#666666;stroke:#000000;stroke-width:0.264583px;stroke-linecap:butt;stroke-linejoin:miter;stroke-opacity:1"
         d="m 16.253,28.514317 h 4.510501 v -5.766214 l -0.837417,0.969903 -8.4e-5,3.910981 H 16.961681 V 23.718006 L 16.253,22.79672 Z"
         id="path1029"
         sodipodi:nodetypes="ccccccccc" />
    </g>
    <g
       id="g1138"
       transform="rotate(-90,17.723612,19.440583)">
      <path
         style="fill:#4d4d4d;stroke:#000000;stroke-width:0.232378px;stroke-linecap:butt;stroke-linejoin:miter;stroke-opacity:1"
         d="m 2.1475347,32.647694 h 4.1776535 v 0.823505 L 6.0653907,34.05455 H 2.3900735 L 2.1475347,33.509952 Z"
         id="path1033-4" />
      <path
         style="fill:#b3b3b3;stroke:#000000;stroke-width:0.232378px;stroke-linecap:butt;stroke-linejoin:miter;stroke-opacity:1"
         d="m 2.3900735,34.05455 v 1.542409 H 5.9736008 V 34.05455 Z"
         id="path1039-5"
         sodipodi:nodetypes="ccccc" />
      <path
         style="fill:#333333;stroke:#000000;stroke-width:0.232378px;stroke-linecap:butt;stroke-linejoin:miter;stroke-opacity:1"
         d="M 2.6577668,36.332961 V 35.596959 H 5.737385 v 0.759624 z"
         id="path1041-2" />
      <path
         style="fill:#b3b3b3;stroke:#000000;stroke-width:0.232378px;stroke-linecap:butt;stroke-linejoin:miter;stroke-opacity:1"
         d="M 2.6577668,36.332961 H 2.3115382 v 1.322917 H 6.0836144 V 36.357 H 5.737385 Z"
         id="path1043-0"
         sodipodi:nodetypes="ccccccc" />
      <path
         style="fill:#666666;stroke:#000000;stroke-width:0.232378px;stroke-linecap:butt;stroke-linejoin:miter;stroke-opacity:1"
         d="m 3.0132218,37.655878 -0.4866372,1.0927 h 3.321407 l -0.4866373,-1.0927 z"
         id="path1045-4" />
      <path
         style="fill:#808080;stroke:#000000;stroke-width:0.264583px;stroke-linecap:butt;stroke-linejoin:miter;stroke-opacity:1"
         d="M 2.6893996,32.647694 V 19.711127 h 0.9020347 v 12.060537 h 1.7539562 v -3.44791 l 0.6142765,0.370125 v 3.953815 z"
         id="path1121"
         sodipodi:nodetypes="ccccccccc" />
      <path
         style="fill:#666666;stroke:#000000;stroke-width:0.264583px;stroke-linecap:butt;stroke-linejoin:miter;stroke-opacity:1"
         d="m 2.6893996,27.762623 -1.2651132,-0.730414 0.480009,-2.977952 0.7851042,-0.45328 z"
         id="path1123" />
      <path
         style="fill:#1a1a1a;fill-opacity:1;stroke:#000000;stroke-width:0.264583px;stroke-linecap:butt;stroke-linejoin:miter;stroke-opacity:1"
         d="M 1.8234498,24.555819 1.564321,26.163441 c 0,0 -0.4628486,-0.513022 -0.3313833,-1.003657 0.1314652,-0.490636 0.5905121,-0.603965 0.5905121,-0.603965 z"
         id="path1125"
         sodipodi:nodetypes="cczc" />
      <path
         style="fill:#b3b3b3;fill-opacity:1;stroke:#000000;stroke-width:0.264583px;stroke-linecap:butt;stroke-linejoin:miter;stroke-opacity:1"
         d="m 3.5914343,21.308407 c 0.330798,3.39292 1.0195493,5.298957 1.7539562,7.015347 v 3.44791 H 3.5914343 Z"
         id="path1127"
         sodipodi:nodetypes="ccccc" />
    </g>
    <g
       id="g1173"
       transform="matrix(0,1,1,0,-1.7169692,0.28065977)">
      <path
         style="fill:#4d4d4d;stroke:#000000;stroke-width:0.232378px;stroke-linecap:butt;stroke-linejoin:miter;stroke-opacity:1"
         d="m 2.1475347,32.647694 h 4.1776535 v 0.823505 L 6.0653907,34.05455 H 2.3900735 L 2.1475347,33.509952 Z"
         id="path1155" />
      <path
         style="fill:#b3b3b3;stroke:#000000;stroke-width:0.232378px;stroke-linecap:butt;stroke-linejoin:miter;stroke-opacity:1"
         d="m 2.3900735,34.05455 v 1.542409 H 5.9736008 V 34.05455 Z"
         id="path1157"
         sodipodi:nodetypes="ccccc" />
      <path
         style="fill:#333333;stroke:#000000;stroke-width:0.232378px;stroke-linecap:butt;stroke-linejoin:miter;stroke-opacity:1"
         d="M 2.6577668,36.332961 V 35.596959 H 5.737385 v 0.759624 z"
         id="path1159" />
      <path
         style="fill:#b3b3b3;stroke:#000000;stroke-width:0.232378px;stroke-linecap:butt;stroke-linejoin:miter;stroke-opacity:1"
         d="M 2.6577668,36.332961 H 2.3115382 v 1.322917 H 6.0836144 V 36.357 H 5.737385 Z"
         id="path1161"
         sodipodi:nodetypes="ccccccc" />
      <path
         style="fill:#666666;stroke:#000000;stroke-width:0.232378px;stroke-linecap:butt;stroke-linejoin:miter;stroke-opacity:1"
         d="m 3.0132218,37.655878 -0.4866372,1.0927 h 3.321407 l -0.4866373,-1.0927 z"
         id="path1163" />
      <path
         style="fill:#808080;stroke:#000000;stroke-width:0.264583px;stroke-linecap:butt;stroke-linejoin:miter;stroke-opacity:1"
         d="M 2.6893996,32.647694 V 19.711127 h 0.9020347 v 12.060537 h 1.7539562 v -3.44791 l 0.6142765,0.370125 v 3.953815 z"
         id="path1165"
         sodipodi:nodetypes="ccccccccc" />
      <path
         style="fill:#666666;stroke:#000000;stroke-width:0.264583px;stroke-linecap:butt;stroke-linejoin:miter;stroke-opacity:1"
         d="m 2.6893996,27.762623 -1.2651132,-0.730414 0.480009,-2.977952 0.7851042,-0.45328 z"
         id="path1167" />
      <path
         style="fill:#1a1a1a;fill-opacity:1;stroke:#000000;stroke-width:0.264583px;stroke-linecap:butt;stroke-linejoin:miter;stroke-opacity:1"
         d="M 1.8234498,24.555819 1.564321,26.163441 c 0,0 -0.4628486,-0.513022 -0.3313833,-1.003657 0.1314652,-0.490636 0.5905121,-0.603965 0.5905121,-0.603965 z"
         id="path1169"
         sodipodi:nodetypes="cczc" />
      <path
         style="fill:#b3b3b3;fill-opacity:1;stroke:#000000;stroke-width:0.264583px;stroke-linecap:butt;stroke-linejoin:miter;stroke-opacity:1"
         d="m 3.5914343,21.308407 c 0.330798,3.39292 1.0195493,5.298957 1.7539562,7.015347 v 3.44791 H 3.5914343 Z"
         id="path1171"
         sodipodi:nodetypes="ccccc" />
    </g>
    <g
       id="g1198"
       transform="rotate(-90,17.723612,19.440583)">
      <g
         id="g1204"
         transform="rotate(30,12.239617,14.167745)">
        <circle
           style="opacity:1;fill:#ececec;fill-opacity:1;stroke:#000000;stroke-width:0.3;stroke-linecap:round;stroke-linejoin:round;stroke-opacity:1;paint-order:markers fill stroke"
           id="path1175"
           cx="11.339286"
           cy="12.44959"
           r="1.8190104" />
        <rect
           style="opacity:1;fill:#000000;fill-opacity:1;stroke:#000000;stroke-width:0.227214;stroke-linecap:round;stroke-linejoin:round;stroke-opacity:1;paint-order:markers fill stroke"
           id="rect1177"
           width="0.31708229"
           height="2.9076078"
           x="10.61699"
           y="8.9169178" />
        <rect
           style="opacity:1;fill:#000000;fill-opacity:1;stroke:#000000;stroke-width:0.227214;stroke-linecap:round;stroke-linejoin:round;stroke-opacity:1;paint-order:markers fill stroke"
           id="rect1190"
           width="0.31708229"
           height="2.9076078"
           x="11.689448"
           y="8.9169178" />
        <circle
           style="opacity:1;fill:#b3b3b3;fill-opacity:1;stroke:#000000;stroke-width:0.213467;stroke-linecap:round;stroke-linejoin:round;stroke-opacity:1;paint-order:markers fill stroke"
           id="circle1192"
           cx="11.339286"
           cy="12.44959"
           r="1.294329" />
      </g>
    </g>
  </g>
</svg>
