<?xml version="1.0" encoding="UTF-8" standalone="no"?>
<svg
   xmlns:dc="http://purl.org/dc/elements/1.1/"
   xmlns:cc="http://creativecommons.org/ns#"
   xmlns:rdf="http://www.w3.org/1999/02/22-rdf-syntax-ns#"
   xmlns:svg="http://www.w3.org/2000/svg"
   xmlns="http://www.w3.org/2000/svg"
   width="203.09491"
   height="154.08839"
   viewBox="0 0 53.73553 40.769222"
   version="1.1"
   id="svg8">
  <defs
     id="defs2" />
  <metadata
     id="metadata5">
    <rdf:RDF>
      <cc:Work
         rdf:about="">
        <dc:format>image/svg+xml</dc:format>
        <dc:type
           rdf:resource="http://purl.org/dc/dcmitype/StillImage" />
        <dc:title></dc:title>
      </cc:Work>
    </rdf:RDF>
  </metadata>
  <g
     id="layer2"
     transform="translate(8.1903333,1.3588192)">
    <path
       id="path849"
       style="display:inline;fill:#ffff00;stroke:none;stroke-width:0.264583px;stroke-linecap:butt;stroke-linejoin:miter;stroke-opacity:1"
       d="m 47.915676,-162.76874 c 0,0 4.60818,2.12181 13.86427,3.7145 4.708109,0.81013 14.265796,1.12965 14.265796,1.12965 h 5.212083 l 9.421132,12.76201 h 5.144905 l -3.093868,-11.54451 v -1.2175 l 0.501261,-4.84415 -0.501261,-4.84415 v -1.21801 l 3.093868,-11.54451 h -5.144905 l -9.421132,12.76252 h -5.212083 c 0,0 -9.557687,0.31901 -14.265796,1.12913 -9.25609,1.5927 -13.86427,3.71502 -13.86427,3.71502 z"
       transform="translate(-53.869961,181.79462)" />
  </g>
  <g
     id="layer1"
     transform="translate(-45.679628,183.15344)"
     style="display:inline">
    <path
       style="fill:none;stroke:#000000;stroke-width:0.264583px;stroke-linecap:round;stroke-linejoin:miter;stroke-opacity:1"
       d="m 97.179087,-162.18724 v -1.16324"
       id="path971" />
    <path
       style="fill:#333333;fill-opacity:0.6;stroke:#000000;stroke-width:0.3;stroke-linecap:round;stroke-linejoin:round;stroke-miterlimit:4;stroke-dasharray:none;stroke-opacity:1;paint-order:markers fill stroke"
       d="m 95.823836,-145.16244 -3.09368,-11.54453 h -2.9867 z"
       id="path851" />
    <path
       style="fill:#1a1a1a;fill-opacity:0.95;stroke:#000000;stroke-width:0.3;stroke-linecap:round;stroke-linejoin:round;stroke-miterlimit:4;stroke-dasharray:none;stroke-opacity:1;paint-order:markers fill stroke"
       d="m 90.623416,-155.03622 h -5.05605 v 2.94965 l 5.11153,6.92413 h 5.14494 z"
       id="path853" />
    <path
       style="fill:#c83737;fill-opacity:0.811245;stroke:#000000;stroke-width:0.3;stroke-linecap:round;stroke-linejoin:round;stroke-miterlimit:4;stroke-dasharray:none;stroke-opacity:1;paint-order:markers fill stroke"
       d="m 85.567366,-156.70697 h -3.41087 l 3.41087,4.6204 z"
       id="path855" />
    <path
       style="fill:#5d0000;fill-opacity:0.742972;stroke:#000000;stroke-width:0.3;stroke-linecap:round;stroke-linejoin:round;stroke-miterlimit:4;stroke-dasharray:none;stroke-opacity:1;paint-order:markers fill stroke"
       d="m 90.623416,-155.03622 h -5.05605 v -1.67075 h 4.17609 z"
       id="path857" />
    <path
       style="fill:#1a1a1a;fill-opacity:0.95;stroke:#000000;stroke-width:0.3;stroke-linecap:round;stroke-linejoin:round;stroke-miterlimit:4;stroke-dasharray:none;stroke-opacity:1;paint-order:markers fill stroke"
       d="m 81.257646,-157.92456 h 11.47251 v 1.21759 h -10.57366 z"
       id="path859" />
    <path
       style="fill:#7c0000;fill-opacity:0.851406;stroke:#000000;stroke-width:0.3;stroke-linecap:round;stroke-linejoin:round;stroke-miterlimit:4;stroke-dasharray:none;stroke-opacity:1;paint-order:markers fill stroke"
       d="m 92.805246,-158.65041 -1.85448,-1.07068 h -15.03851 l -0.47532,1.77391 5.82071,0.0226 h 11.47251 z"
       id="path861" />
    <path
       id="path863"
       style="fill:#ffffff;fill-opacity:0.3;stroke:#000000;stroke-width:0.3;stroke-linecap:round;stroke-linejoin:round;stroke-miterlimit:4;stroke-dasharray:none;stroke-opacity:1;paint-order:markers fill stroke"
       d="m 60.204336,-159.33897 c 0.51032,0.0964 1.03339,0.19143 1.57561,0.28473 2.44476,0.42067 6.17825,0.70678 9.22114,0.88677 v -2.46341 l -8.18503,-0.30025 z" />
    <path
       style="fill:#ffffff;fill-opacity:0.220884;stroke:#000000;stroke-width:0.3;stroke-linecap:round;stroke-linejoin:round;stroke-miterlimit:4;stroke-dasharray:none;stroke-opacity:1;paint-order:markers fill stroke"
       d="m 72.856606,-158.06406 0.85316,-3.18406 h 19.3642 l -0.26872,2.59771 -1.85448,-1.07068 h -15.03851 l -0.47532,1.77391 z"
       id="path865" />
    <path
       id="path867"
       style="fill:#4d4d4d;fill-opacity:0.795181;stroke:#000000;stroke-width:0.3;stroke-linecap:round;stroke-linejoin:round;stroke-miterlimit:4;stroke-dasharray:none;stroke-opacity:1;paint-order:markers fill stroke"
       d="m 71.001088,-158.16592 1.8557,0.1018 0.853178,-3.18378 h 19.364193 l 0.157096,-1.52084 -0.157096,-1.52084 H 73.709966 l -0.853178,-3.18378 -1.8557,0.1018 v 4.60282 z" />
    <path
       style="fill:#550000;fill-opacity:0.73494;stroke:#000000;stroke-width:0.3;stroke-linecap:round;stroke-linejoin:round;stroke-miterlimit:4;stroke-dasharray:none;stroke-opacity:1;paint-order:markers fill stroke"
       d="m 71.001176,-160.63067 -8.18513,-0.30068 v -1.83747 h 8.18513 z"
       id="path869" />
    <path
       style="fill:#808080;stroke:#000000;stroke-width:0.3;stroke-linecap:round;stroke-linejoin:round;stroke-miterlimit:4;stroke-dasharray:none;stroke-opacity:1;paint-order:markers fill stroke"
       d="m 92.888256,-159.45287 h 0.90716 l 0.23623,-2.24846 h -0.91079 z"
       id="path871" />
    <path
       style="fill:#1a1a1a;stroke:#000000;stroke-width:0.3;stroke-linecap:round;stroke-linejoin:round;stroke-miterlimit:4;stroke-dasharray:none;stroke-opacity:1;paint-order:markers fill stroke"
       d="m 93.795416,-159.45287 0.23623,-2.24846 h 0.8977 v 2.24846 z"
       id="path875" />
    <path
       id="path882"
       style="fill:#480000;fill-opacity:1;stroke:#000000;stroke-width:0.3;stroke-linecap:round;stroke-linejoin:round;stroke-miterlimit:4;stroke-dasharray:none;stroke-opacity:1;paint-order:markers fill stroke"
       d="m 47.915676,-162.76874 c 0,0 4.087335,1.88054 12.288655,3.42977 l 2.611727,-1.59215 v -1.83762 -1.83761 l -2.611727,-1.59215 c -8.20132,1.54922 -12.288655,3.42976 -12.288655,3.42976 z" />
    <path
       style="fill:#5d0000;fill-opacity:0.742972;stroke:#000000;stroke-width:0.3;stroke-linecap:round;stroke-linejoin:round;stroke-miterlimit:4;stroke-dasharray:none;stroke-opacity:1;paint-order:markers fill stroke"
       d="m 95.823836,-180.37521 -3.09368,11.54452 h -2.9867 z"
       id="path905" />
    <path
       style="fill:#333333;fill-opacity:0.6;stroke:#000000;stroke-width:0.3;stroke-linecap:round;stroke-linejoin:round;stroke-miterlimit:4;stroke-dasharray:none;stroke-opacity:1;paint-order:markers fill stroke"
       d="m 90.623416,-170.50143 h -5.05605 v -2.94965 l 5.11153,-6.92413 h 5.14494 z"
       id="path907" />
    <path
       style="fill:#1a1a1a;fill-opacity:0.95;stroke:#000000;stroke-width:0.3;stroke-linecap:round;stroke-linejoin:round;stroke-miterlimit:4;stroke-dasharray:none;stroke-opacity:1;paint-order:markers fill stroke"
       d="m 85.567366,-168.83069 h -3.41087 l 3.41087,-4.62039 z"
       id="path909" />
    <path
       style="fill:#c83737;fill-opacity:0.811245;stroke:#000000;stroke-width:0.3;stroke-linecap:round;stroke-linejoin:round;stroke-miterlimit:4;stroke-dasharray:none;stroke-opacity:1;paint-order:markers fill stroke"
       d="m 90.623416,-170.50143 h -5.05605 v 1.67074 h 4.17609 z"
       id="path911" />
    <path
       style="fill:#333333;fill-opacity:0.6;stroke:#000000;stroke-width:0.3;stroke-linecap:round;stroke-linejoin:round;stroke-miterlimit:4;stroke-dasharray:none;stroke-opacity:1;paint-order:markers fill stroke"
       d="m 81.257646,-167.61309 h 11.47251 v -1.2176 h -10.57366 z"
       id="path913" />
    <path
       style="fill:#7c0000;fill-opacity:0.85098;stroke:#000000;stroke-width:0.3;stroke-linecap:round;stroke-linejoin:round;stroke-miterlimit:4;stroke-dasharray:none;stroke-opacity:1;paint-order:markers fill stroke"
       d="m 92.805246,-166.88724 -1.85448,1.07068 h -15.03851 l -0.47532,-1.77391 5.82071,-0.0226 h 11.47251 z"
       id="path915" />
    <path
       id="path917"
       style="fill:#ffffff;fill-opacity:0.3;stroke:#000000;stroke-width:0.3;stroke-linecap:round;stroke-linejoin:round;stroke-miterlimit:4;stroke-dasharray:none;stroke-opacity:1;paint-order:markers fill stroke"
       d="m 60.204336,-166.19868 c 0.51032,-0.0964 1.03339,-0.19143 1.57561,-0.28473 2.44476,-0.42067 6.17825,-0.70678 9.22114,-0.88677 v 2.46341 l -8.18503,0.30024 z" />
    <path
       style="fill:#ffffff;fill-opacity:0.3;stroke:#000000;stroke-width:0.3;stroke-linecap:round;stroke-linejoin:round;stroke-miterlimit:4;stroke-dasharray:none;stroke-opacity:1;paint-order:markers fill stroke"
       d="m 72.856606,-167.47359 0.85316,3.18406 h 19.3642 l -0.26872,-2.59771 -1.85448,1.07068 h -15.03851 l -0.47532,-1.77391 z"
       id="path919" />
    <path
       style="fill:#6e0000;fill-opacity:0.574297;stroke:#000000;stroke-width:0.3;stroke-linecap:round;stroke-linejoin:round;stroke-miterlimit:4;stroke-dasharray:none;stroke-opacity:1;paint-order:markers fill stroke"
       d="m 71.001176,-164.90698 -8.18513,0.30067 v 1.83748 h 8.18513 z"
       id="path923" />
    <path
       style="fill:#808080;stroke:#000000;stroke-width:0.3;stroke-linecap:round;stroke-linejoin:round;stroke-miterlimit:4;stroke-dasharray:none;stroke-opacity:1;paint-order:markers fill stroke"
       d="m 92.888256,-166.08478 h 0.90716 l 0.23623,2.24845 h -0.91079 z"
       id="path925" />
    <path
       style="fill:#1a1a1a;stroke:#000000;stroke-width:0.3;stroke-linecap:round;stroke-linejoin:round;stroke-miterlimit:4;stroke-dasharray:none;stroke-opacity:1;paint-order:markers fill stroke"
       d="m 93.795416,-166.08478 0.23623,2.24845 h 0.8977 v -2.24845 z"
       id="path927" />
    <path
       id="path966"
       style="fill:#ffffff;stroke:#000000;stroke-width:0.3;stroke-linecap:round;stroke-linejoin:round;stroke-miterlimit:4;stroke-dasharray:none;stroke-opacity:1;paint-order:markers fill stroke"
       d="m 79.993575,-162.27458 13.080338,1.02681 4.105175,-0.93948 v -0.58136 -0.58187 l -4.105175,-0.93896 -13.080338,1.02629 -0.277585,0.49454 z" />
    <path
       style="fill:#1a1a1a;stroke:#000000;stroke-width:0.3;stroke-linecap:round;stroke-linejoin:round;stroke-miterlimit:4;stroke-dasharray:none;stroke-opacity:1;paint-order:markers fill stroke"
       d="m 79.715986,-162.7686 17.4631,0.58136 v -1.16324 z"
       id="path973" />
  </g>
</svg>
