<?xml version="1.0" encoding="UTF-8" standalone="no"?>
<svg
   xmlns:dc="http://purl.org/dc/elements/1.1/"
   xmlns:cc="http://creativecommons.org/ns#"
   xmlns:rdf="http://www.w3.org/1999/02/22-rdf-syntax-ns#"
   xmlns:svg="http://www.w3.org/2000/svg"
   xmlns="http://www.w3.org/2000/svg"
   width="268"
   height="186"
   viewBox="0 0 70.908332 49.212499"
   version="1.1"
   id="svg1937">
  <defs
     id="defs1931" />
  <metadata
     id="metadata1934">
    <rdf:RDF>
      <cc:Work
         rdf:about="">
        <dc:format>image/svg+xml</dc:format>
        <dc:type
           rdf:resource="http://purl.org/dc/dcmitype/StillImage" />
        <dc:title></dc:title>
      </cc:Work>
    </rdf:RDF>
  </metadata>
  <g
     id="layer1"
     transform="translate(-89.454369,-43.164883)"
     style="display:inline" />
  <g
     id="layer2"
     style="display:inline">
    <path
       style="display:inline;fill:#ffff00;stroke:none;stroke-width:0.264583px;stroke-linecap:butt;stroke-linejoin:miter;stroke-opacity:1"
       d="m 12.995388,27.224642 -8.646,-0.0783 v 7.72893 c 2.120468,2.01732 5.374654,3.07106 9.543812,3.07106 h 11.906252 l 0.87333,1.544809 h 8.28536 l 0.8659,-1.499789 h 10.04204 c 0.54564,1.479934 -0.58904,4.043054 1.88759,4.439753 15.36248,0.179635 17.91228,0.108745 18.64204,-0.567948 l 0.0334,-1.904295 -2.93996,-0.868626 V 9.690592 h 2.27179 c 0.49056,-0.46463 1.27878,-0.51513 1.10184,-1.90845 0.15336,-0.88494 -1.83035,-0.79508 -3.37659,-0.90476 h -17.10228 l -0.86947,3.2449 h -10.08858 l -0.67671,-1.17209 h -8.34364 l -0.75975,1.31592 H 13.108855 c -3.69288,-0.0392 -5.902349,0.24157 -9.087163,2.93239 v 7.71741 h 8.973696 z"
       id="path2515" />
    <path
       style="fill:#1a1a1a;fill-opacity:1;stroke:#000000;stroke-width:0.264583px;stroke-linecap:butt;stroke-linejoin:miter;stroke-opacity:1"
       d="M 14.094388,31.89873 C 10.867524,31.25272 7.5907106,30.68759 5.0042186,29.00479 v -0.69683 h 9.0901694 z"
       id="path2517" />
    <path
       style="fill:#98343d;fill-opacity:0.45;stroke:#000000;stroke-width:0.264583px;stroke-linecap:butt;stroke-linejoin:miter;stroke-opacity:1"
       d="m 14.094388,31.89873 v 6.0476 h 11.705062 1.322917 v -1.18115 h -12.78032 v -4.89007 z"
       id="path2519" />
    <path
       style="fill:#770000;fill-opacity:0.98;stroke:#000000;stroke-width:0.264583px;stroke-linecap:butt;stroke-linejoin:miter;stroke-opacity:1"
       d="M 31.965388,33.93035 H 14.342047 v -1.41741 h 17.623341 z"
       id="path2521" />
    <path
       style="fill:#f2f2f2;fill-opacity:0.3;stroke:#000000;stroke-width:0.264583px;stroke-linecap:butt;stroke-linejoin:miter;stroke-opacity:1"
       d="m 20.692628,27.76513 v -7.78465 h -7.14924 l -2.2e-4,7.78465 z"
       id="path2523" />
    <path
       style="fill:#000000;fill-opacity:0.3;stroke:#000000;stroke-width:0.264583px;stroke-linecap:butt;stroke-linejoin:miter;stroke-opacity:1"
       d="m 20.692628,19.98013 v 7.785 h 4.576991 v -7.785 z"
       id="path2525" />
    <path
       style="fill:#ff0000;fill-opacity:0.4;stroke:#000000;stroke-width:0.264583px;stroke-linecap:butt;stroke-linejoin:miter;stroke-opacity:1"
       d="M 23.555217,27.76513 H 13.543168 v 0.54283 h 0.55122 v 3.59077 h 0.247659 v 0.61421 h 9.213341 z"
       id="path2529" />
    <path
       style="fill:#770000;fill-opacity:0.98;stroke:#000000;stroke-width:0.264583px;stroke-linecap:butt;stroke-linejoin:miter;stroke-opacity:1"
       d="m 31.801018,15.47031 v -1.60362 h -15.54563 v 1.60344 z"
       id="path2554" />
    <path
       style="fill:#1a1a1a;fill-opacity:1;stroke:#000000;stroke-width:0.264583px;stroke-linecap:butt;stroke-linejoin:miter;stroke-opacity:1"
       d="M 13.543388,19.98048 H 4.0216916 V 13.9001 h 9.5216964 z"
       id="path2558" />
    <path
       style="fill:#b3b3b3;fill-opacity:0.35;stroke:#000000;stroke-width:0.264583px;stroke-linecap:butt;stroke-linejoin:miter;stroke-opacity:1"
       d="m 23.432141,13.86669 v -3.60058 h -9.888753 v 9.71437 h 6.798449 v -4.51017 l -4.086449,-1.8e-4 v -1.60344 z"
       id="path2582" />
    <path
       style="fill:#ffff9a;fill-opacity:0.3625;stroke:#000000;stroke-width:0.264583px;stroke-linecap:butt;stroke-linejoin:miter;stroke-opacity:1"
       d="m 14.342047,36.76518 v -2.83483 h 17.62334 v -1.41741 h -8.409999 l -1.71e-4,-4.74781 h 12.338169 v 0.30026 h 2.662762 v 9.92596 l -11.433781,-0.045 V 36.7652 Z"
       id="path2584" />
    <path
       id="path884"
       style="fill:#ffffff;fill-opacity:0.95;stroke:#000000;stroke-width:0.264583px;stroke-linecap:butt;stroke-linejoin:miter;stroke-opacity:1"
       d="m 4.0214501,20.91572 h 8.9741289 v 6.309175 l -8.6459834,-0.07855 v 7.728727 c 2.1204677,2.01732 5.3744452,3.071131 9.5436034,3.071131 H 14.09422 V 31.89851 C 10.867356,31.2525 7.5908279,30.68743 5.0043359,29.00463 V 28.308034 H 13.543349 V 19.980376 H 4.0214501 Z" />
    <path
       id="path910"
       style="fill:#ffffff;fill-opacity:0.95;stroke:#000000;stroke-width:0.264583px;stroke-linecap:butt;stroke-linejoin:miter;stroke-opacity:1"
       d="m 4.0214501,13.900127 h 9.5218989 v -3.633886 h -0.434598 c -3.6928802,-0.0392 -5.902487,0.2413 -9.0873009,2.932121 z" />
    <path
       style="fill:#7b0000;fill-opacity:0.4;stroke:#000000;stroke-width:0.264583px;stroke-linecap:butt;stroke-linejoin:miter;stroke-opacity:1"
       d="m 25.79945,37.94633 10.024594,0.045 -0.865904,1.499789 H 26.672784 L 25.79945,37.94631"
       id="path2531" />
    <path
       style="fill:#f2f2f2;fill-opacity:0.3;stroke:#000000;stroke-width:0.264583px;stroke-linecap:butt;stroke-linejoin:miter;stroke-opacity:1"
       d="M 35.893388,28.06539 H 58.745125 V 20.28116 H 35.893388 Z"
       id="path2533" />
    <path
       style="fill:#ffff9a;fill-opacity:0.3625;stroke:#000000;stroke-width:0.264583px;stroke-linecap:butt;stroke-linejoin:miter;stroke-opacity:1"
       d="M 25.269619,27.76513 H 35.893386 V 20.28116 H 25.269619 Z"
       id="path2535" />
    <path
       style="fill:#1a1a1a;fill-opacity:0.7;stroke:#000000;stroke-width:0.264583px;stroke-linecap:butt;stroke-linejoin:miter;stroke-opacity:1"
       d="m 45.454211,35.77313 v -7.70774 l -6.898063,-0.11178 v 7.81952 z"
       id="path2537" />
    <path
       style="fill:#ffffff;fill-opacity:0.8;stroke:#000000;stroke-width:0.264583px;stroke-linecap:butt;stroke-linejoin:miter;stroke-opacity:1"
       d="m 38.556148,35.77313 v 2.21822 h 6.69024 v -2.21822 z"
       id="path2539" />
    <path
       style="fill:#ffffff;fill-opacity:0.8;stroke:#000000;stroke-width:0.264583px;stroke-linecap:butt;stroke-linejoin:miter;stroke-opacity:1"
       d="M 58.745125,20.28116 V 17.67528 H 38.666503 v -2.47224 h 6.614922 V 10.12228 H 35.42586 l -9.780096,0.14383 h -2.213623 v 3.60058 h 8.368877 v 1.60362 H 20.341837 v 4.51017 h 4.927782 v 0.30068 z"
       id="path2552" />
    <path
       style="fill:#ffff9a;fill-opacity:0.3625;stroke:#000000;stroke-width:0.264583px;stroke-linecap:butt;stroke-linejoin:miter;stroke-opacity:1"
       d="m 25.645764,10.26611 0.759751,-1.31592 h 8.343638 l 0.676707,1.17209 z"
       id="path2580" />
    <path
       style="fill:#ffff9a;fill-opacity:0.3625;stroke:#000000;stroke-width:0.264583px;stroke-linecap:butt;stroke-linejoin:miter;stroke-opacity:1"
       d="m 58.745125,28.06539 v 3.94222 H 45.454211 v -3.94222 z"
       id="path2541" />
    <path
       style="fill:#98343d;fill-opacity:0.45;stroke:#000000;stroke-width:0.264583px;stroke-linecap:butt;stroke-linejoin:miter;stroke-opacity:1"
       d="m 54.702676,37.18613 v -5.17852 h -9.248465 v 3.76552 h -0.207823 v 1.413 z"
       id="path2543" />
    <path
       style="fill:#1a1a1a;fill-opacity:0.7;stroke:#000000;stroke-width:0.264583px;stroke-linecap:butt;stroke-linejoin:miter;stroke-opacity:1"
       d="m 58.745125,32.00761 v 5.01742 h -4.042449 v -5.01742 z"
       id="path2545" />
    <path
       id="path2547"
       style="fill:#f2f2f2;fill-opacity:0.3;stroke:#000000;stroke-width:0.264583px;stroke-linecap:butt;stroke-linejoin:miter;stroke-opacity:1"
       d="m 45.246323,37.991163 h 0.619602 c 0.545645,1.479934 -0.588891,4.04334 1.887738,4.440039 0.820063,0.0096 1.464072,0.01515 2.212785,0.02325 V 37.18604 h -4.720125 z" />
    <path
       style="fill:#b3b3b3;fill-opacity:0.35;stroke:#000000;stroke-width:0.264583px;stroke-linecap:butt;stroke-linejoin:miter;stroke-opacity:1"
       d="M 58.745385,17.67528 H 38.666503 v -2.47224 h 20.078882 z"
       id="path2562" />
    <path
       id="path2564"
       style="fill:#1a1a1a;fill-opacity:0.7;stroke:#000000;stroke-width:0.264583px;stroke-linecap:butt;stroke-linejoin:miter;stroke-opacity:1"
       d="M 45.281463,11.771501 H 58.745241 V 10.731844 C 58.860231,8.798486 59.978276,7.90271 60.970945,6.877302 H 46.383722 l -0.869198,3.244762 h -0.233061 z" />
    <path
       id="path2569"
       style="fill:#ffffff;fill-opacity:0.8;stroke:#000000;stroke-width:0.264583px;stroke-linecap:butt;stroke-linejoin:miter;stroke-opacity:1"
       d="m 49.966448,42.454457 c 1.74e-4,2e-6 2.64e-4,-2e-6 5.29e-4,0 5.592702,0.06056 9.293058,0.07712 11.694893,0.02945 -1.370836,-0.661003 -2.834667,-1.803889 -2.916619,-5.459098 h -4.042648 v 0.16123 h -4.736145 z" />
    <path
       style="fill:#1a1a1a;fill-opacity:0.7;stroke:#000000;stroke-width:0.264583px;stroke-linecap:butt;stroke-linejoin:miter;stroke-opacity:1"
       d="m 58.745385,31.45013 4.74377,-2.4e-4 V 17.22853 h -4.74377 v 14.2216"
       id="path2574" />
    <path
       style="fill:#ff0000;fill-opacity:0.15;stroke:#000000;stroke-width:0.264583px;stroke-linecap:butt;stroke-linejoin:miter;stroke-opacity:1"
       d="m 58.745245,11.7715 v 3.43139 h -4.195982 l -0.02866,-3.43139 z"
       id="path2576" />
    <path
       style="fill:#98343d;fill-opacity:0.45;stroke:#000000;stroke-width:0.264583px;stroke-linecap:butt;stroke-linejoin:miter;stroke-opacity:1"
       d="m 54.520603,11.7715 h -9.239178 v 3.43154 l 9.267838,-1.5e-4 z"
       id="path2578" />
    <path
       id="path2586"
       style="fill:#1a1a1a;fill-opacity:0.7;stroke:#000000;stroke-width:0.264583px;stroke-linecap:butt;stroke-linejoin:miter;stroke-opacity:1"
       d="m 58.987604,39.090321 c 0.48278,2.063911 1.60537,2.878186 2.674255,3.393591 3.299973,-0.06549 4.334275,-0.249903 4.734079,-0.620634 l 0.03307,-1.904276 -2.939872,-0.868681 z m 0.943094,3.413745 0.0031,0.0052 c 0.654595,-0.0044 1.187794,-0.01492 1.71514,-0.02532 -0.503634,0.0099 -1.096031,0.01566 -1.718241,0.02015 z" />
    <path
       id="path2594"
       style="fill:#f2f2f2;fill-opacity:0.3;stroke:#000000;stroke-width:0.264583px;stroke-linecap:butt;stroke-linejoin:miter;stroke-opacity:1"
       d="m 58.926107,9.690566 h 4.563031 2.271696 C 66.251393,9.225937 67.039515,9.175475 66.862575,7.782156 67.015936,6.897214 65.032278,6.98698 63.486037,6.877302 H 60.970945 C 60.176322,7.698129 59.302588,8.43715 58.926107,9.690566 Z" />
    <path
       id="path864"
       style="fill:#98343d;fill-opacity:0.45;stroke:#000000;stroke-width:0.264583px;stroke-linecap:butt;stroke-linejoin:miter;stroke-opacity:1"
       d="m 58.745241,37.024814 c 0.01804,0.805127 0.105981,1.482467 0.242363,2.065507 h 4.501534 v -7.64036 h -4.743897 v 5.29e-4 z" />
    <path
       id="path877"
       style="fill:#ffffff;fill-opacity:0.8;stroke:#000000;stroke-width:0.264583px;stroke-linecap:butt;stroke-linejoin:miter;stroke-opacity:1"
       d="m 58.745241,17.228606 h 4.743897 v -7.53804 h -4.563031 c -0.09383,0.312391 -0.157924,0.655561 -0.180866,1.041278 v 1.039731 z" />
  </g>
</svg>
