<?xml version="1.0" encoding="UTF-8" standalone="no"?>
<svg
   xmlns:dc="http://purl.org/dc/elements/1.1/"
   xmlns:cc="http://creativecommons.org/ns#"
   xmlns:rdf="http://www.w3.org/1999/02/22-rdf-syntax-ns#"
   xmlns:svg="http://www.w3.org/2000/svg"
   xmlns="http://www.w3.org/2000/svg"
   xmlns:xlink="http://www.w3.org/1999/xlink"
   xmlns:sodipodi="http://sodipodi.sourceforge.net/DTD/sodipodi-0.dtd"
   xmlns:inkscape="http://www.inkscape.org/namespaces/inkscape"
   width="120"
   height="75"
   viewBox="0 0 31.75 19.843765"
   version="1.1"
   id="svg8"
   sodipodi:docname="SeekerMining.svg"
   inkscape:version="1.0.2 (e86c870879, 2021-01-15, custom)">
  <sodipodi:namedview
     pagecolor="#ffffff"
     bordercolor="#666666"
     borderopacity="1"
     objecttolerance="10"
     gridtolerance="10"
     guidetolerance="10"
     inkscape:pageopacity="0"
     inkscape:pageshadow="2"
     inkscape:window-width="3440"
     inkscape:window-height="1377"
     id="namedview7"
     showgrid="false"
     inkscape:zoom="10.159482"
     inkscape:cx="101.60906"
     inkscape:cy="48.968369"
     inkscape:window-x="1072"
     inkscape:window-y="-8"
     inkscape:window-maximized="1"
     inkscape:current-layer="layer4"
     showguides="false"
     inkscape:snap-bbox="false"
     inkscape:bbox-nodes="true"
     inkscape:snap-global="true"
     inkscape:object-paths="true"
     inkscape:snap-intersection-paths="true"
     inkscape:snap-grids="false"
     inkscape:snap-to-guides="false"
     inkscape:snap-smooth-nodes="true"
     inkscape:snap-bbox-midpoints="true"
     units="px"
     inkscape:document-rotation="0" />
  <defs
     id="defs2">
    <marker
       style="overflow:visible"
       id="marker7951"
       refX="0"
       refY="0"
       orient="auto"
       inkscape:stockid="DotM"
       inkscape:isstock="true">
      <path
         transform="matrix(0.4,0,0,0.4,2.96,0.4)"
         style="fill:#000000;fill-opacity:1;fill-rule:evenodd;stroke:#000000;stroke-width:1pt;stroke-opacity:1"
         d="m -2.5,-1 c 0,2.76 -2.24,5 -5,5 -2.76,0 -5,-2.24 -5,-5 0,-2.76 2.24,-5 5,-5 2.76,0 5,2.24 5,5 z"
         id="path7949" />
    </marker>
    <marker
       style="overflow:visible"
       id="marker7941"
       refX="0"
       refY="0"
       orient="auto"
       inkscape:stockid="DotM"
       inkscape:isstock="true">
      <path
         transform="matrix(0.4,0,0,0.4,2.96,0.4)"
         style="fill:#ffffff;fill-opacity:1;fill-rule:evenodd;stroke:#000000;stroke-width:1pt;stroke-opacity:1"
         d="m -2.5,-1 c 0,2.76 -2.24,5 -5,5 -2.76,0 -5,-2.24 -5,-5 0,-2.76 2.24,-5 5,-5 2.76,0 5,2.24 5,5 z"
         id="path7939" />
    </marker>
    <marker
       style="overflow:visible"
       id="marker7673"
       refX="0"
       refY="0"
       orient="auto"
       inkscape:stockid="DotM"
       inkscape:isstock="true">
      <path
         transform="matrix(0.4,0,0,0.4,2.96,0.4)"
         style="fill:#666666;fill-opacity:1;fill-rule:evenodd;stroke:#000000;stroke-width:1pt;stroke-opacity:1"
         d="m -2.5,-1 c 0,2.76 -2.24,5 -5,5 -2.76,0 -5,-2.24 -5,-5 0,-2.76 2.24,-5 5,-5 2.76,0 5,2.24 5,5 z"
         id="path7671" />
    </marker>
    <marker
       style="overflow:visible"
       id="marker7411"
       refX="0"
       refY="0"
       orient="auto"
       inkscape:stockid="DotM"
       inkscape:isstock="true">
      <path
         transform="matrix(0.4,0,0,0.4,2.96,0.4)"
         style="fill:#000000;fill-opacity:0;fill-rule:evenodd;stroke:#000000;stroke-width:1pt;stroke-opacity:1"
         d="m -2.5,-1 c 0,2.76 -2.24,5 -5,5 -2.76,0 -5,-2.24 -5,-5 0,-2.76 2.24,-5 5,-5 2.76,0 5,2.24 5,5 z"
         id="path7409" />
    </marker>
    <marker
       style="overflow:visible"
       id="marker7155"
       refX="0"
       refY="0"
       orient="auto"
       inkscape:stockid="DotM"
       inkscape:isstock="true">
      <path
         transform="matrix(0.4,0,0,0.4,2.96,0.4)"
         style="fill:#000000;fill-opacity:0;fill-rule:evenodd;stroke:#000000;stroke-width:1pt;stroke-opacity:1"
         d="m -2.5,-1 c 0,2.76 -2.24,5 -5,5 -2.76,0 -5,-2.24 -5,-5 0,-2.76 2.24,-5 5,-5 2.76,0 5,2.24 5,5 z"
         id="path7153" />
    </marker>
    <marker
       style="overflow:visible"
       id="marker6905"
       refX="0"
       refY="0"
       orient="auto"
       inkscape:stockid="DotM"
       inkscape:isstock="true">
      <path
         transform="matrix(0.4,0,0,0.4,2.96,0.4)"
         style="fill:#800080;fill-opacity:1;fill-rule:evenodd;stroke:#000000;stroke-width:1pt;stroke-opacity:1"
         d="m -2.5,-1 c 0,2.76 -2.24,5 -5,5 -2.76,0 -5,-2.24 -5,-5 0,-2.76 2.24,-5 5,-5 2.76,0 5,2.24 5,5 z"
         id="path6903" />
    </marker>
    <marker
       style="overflow:visible"
       id="marker6661"
       refX="0"
       refY="0"
       orient="auto"
       inkscape:stockid="DotM"
       inkscape:isstock="true">
      <path
         transform="matrix(0.4,0,0,0.4,2.96,0.4)"
         style="fill:#a10000;fill-opacity:0.290196;fill-rule:evenodd;stroke:#000000;stroke-width:1pt;stroke-opacity:1"
         d="m -2.5,-1 c 0,2.76 -2.24,5 -5,5 -2.76,0 -5,-2.24 -5,-5 0,-2.76 2.24,-5 5,-5 2.76,0 5,2.24 5,5 z"
         id="path6659" />
    </marker>
    <marker
       style="overflow:visible"
       id="marker6423"
       refX="0"
       refY="0"
       orient="auto"
       inkscape:stockid="DotM"
       inkscape:isstock="true">
      <path
         transform="matrix(0.4,0,0,0.4,2.96,0.4)"
         style="fill:#000000;fill-opacity:1;fill-rule:evenodd;stroke:#000000;stroke-width:1pt;stroke-opacity:1"
         d="m -2.5,-1 c 0,2.76 -2.24,5 -5,5 -2.76,0 -5,-2.24 -5,-5 0,-2.76 2.24,-5 5,-5 2.76,0 5,2.24 5,5 z"
         id="path6421" />
    </marker>
    <marker
       style="overflow:visible"
       id="marker6191"
       refX="0"
       refY="0"
       orient="auto"
       inkscape:stockid="DotM"
       inkscape:isstock="true">
      <path
         transform="matrix(0.4,0,0,0.4,2.96,0.4)"
         style="fill:#000000;fill-opacity:0;fill-rule:evenodd;stroke:#000000;stroke-width:1pt;stroke-opacity:1"
         d="m -2.5,-1 c 0,2.76 -2.24,5 -5,5 -2.76,0 -5,-2.24 -5,-5 0,-2.76 2.24,-5 5,-5 2.76,0 5,2.24 5,5 z"
         id="path6189" />
    </marker>
    <marker
       style="overflow:visible"
       id="marker5965"
       refX="0"
       refY="0"
       orient="auto"
       inkscape:stockid="DotM"
       inkscape:isstock="true">
      <path
         transform="matrix(0.4,0,0,0.4,2.96,0.4)"
         style="fill:#494479;fill-opacity:0.449799;fill-rule:evenodd;stroke:#000000;stroke-width:1pt;stroke-opacity:1"
         d="m -2.5,-1 c 0,2.76 -2.24,5 -5,5 -2.76,0 -5,-2.24 -5,-5 0,-2.76 2.24,-5 5,-5 2.76,0 5,2.24 5,5 z"
         id="path5963" />
    </marker>
    <marker
       style="overflow:visible"
       id="marker5745"
       refX="0"
       refY="0"
       orient="auto"
       inkscape:stockid="DotM"
       inkscape:isstock="true">
      <path
         transform="matrix(0.4,0,0,0.4,2.96,0.4)"
         style="fill:#000000;fill-opacity:0.729412;fill-rule:evenodd;stroke:#000000;stroke-width:1pt;stroke-opacity:1"
         d="m -2.5,-1 c 0,2.76 -2.24,5 -5,5 -2.76,0 -5,-2.24 -5,-5 0,-2.76 2.24,-5 5,-5 2.76,0 5,2.24 5,5 z"
         id="path5743" />
    </marker>
    <marker
       style="overflow:visible"
       id="marker5531"
       refX="0"
       refY="0"
       orient="auto"
       inkscape:stockid="DotM"
       inkscape:isstock="true">
      <path
         transform="matrix(0.4,0,0,0.4,2.96,0.4)"
         style="fill:#000000;fill-opacity:0;fill-rule:evenodd;stroke:#000000;stroke-width:1pt;stroke-opacity:1"
         d="m -2.5,-1 c 0,2.76 -2.24,5 -5,5 -2.76,0 -5,-2.24 -5,-5 0,-2.76 2.24,-5 5,-5 2.76,0 5,2.24 5,5 z"
         id="path5529" />
    </marker>
    <marker
       style="overflow:visible"
       id="marker5323"
       refX="0"
       refY="0"
       orient="auto"
       inkscape:stockid="DotM"
       inkscape:isstock="true">
      <path
         transform="matrix(0.4,0,0,0.4,2.96,0.4)"
         style="fill:#000000;fill-opacity:0.401606;fill-rule:evenodd;stroke:#000000;stroke-width:1pt;stroke-opacity:1"
         d="m -2.5,-1 c 0,2.76 -2.24,5 -5,5 -2.76,0 -5,-2.24 -5,-5 0,-2.76 2.24,-5 5,-5 2.76,0 5,2.24 5,5 z"
         id="path5321" />
    </marker>
    <marker
       style="overflow:visible"
       id="marker5121"
       refX="0"
       refY="0"
       orient="auto"
       inkscape:stockid="DotM"
       inkscape:isstock="true">
      <path
         transform="matrix(0.4,0,0,0.4,2.96,0.4)"
         style="fill:#494479;fill-opacity:0.449799;fill-rule:evenodd;stroke:#000000;stroke-width:1pt;stroke-opacity:1"
         d="m -2.5,-1 c 0,2.76 -2.24,5 -5,5 -2.76,0 -5,-2.24 -5,-5 0,-2.76 2.24,-5 5,-5 2.76,0 5,2.24 5,5 z"
         id="path5119" />
    </marker>
    <marker
       style="overflow:visible"
       id="marker4925"
       refX="0"
       refY="0"
       orient="auto"
       inkscape:stockid="DotM"
       inkscape:isstock="true">
      <path
         transform="matrix(0.4,0,0,0.4,2.96,0.4)"
         style="fill:#a02c2c;fill-opacity:0.895582;fill-rule:evenodd;stroke:#000000;stroke-width:1pt;stroke-opacity:1"
         d="m -2.5,-1 c 0,2.76 -2.24,5 -5,5 -2.76,0 -5,-2.24 -5,-5 0,-2.76 2.24,-5 5,-5 2.76,0 5,2.24 5,5 z"
         id="path4923" />
    </marker>
    <marker
       style="overflow:visible"
       id="marker4735"
       refX="0"
       refY="0"
       orient="auto"
       inkscape:stockid="DotM"
       inkscape:isstock="true">
      <path
         transform="matrix(0.4,0,0,0.4,2.96,0.4)"
         style="fill:#000000;fill-opacity:0;fill-rule:evenodd;stroke:#000000;stroke-width:1pt;stroke-opacity:1"
         d="m -2.5,-1 c 0,2.76 -2.24,5 -5,5 -2.76,0 -5,-2.24 -5,-5 0,-2.76 2.24,-5 5,-5 2.76,0 5,2.24 5,5 z"
         id="path4733" />
    </marker>
    <marker
       style="overflow:visible"
       id="marker4551"
       refX="0"
       refY="0"
       orient="auto"
       inkscape:stockid="DotM"
       inkscape:isstock="true">
      <path
         transform="matrix(0.4,0,0,0.4,2.96,0.4)"
         style="fill:#334e35;fill-opacity:0.393574;fill-rule:evenodd;stroke:#000000;stroke-width:1pt;stroke-opacity:1"
         d="m -2.5,-1 c 0,2.76 -2.24,5 -5,5 -2.76,0 -5,-2.24 -5,-5 0,-2.76 2.24,-5 5,-5 2.76,0 5,2.24 5,5 z"
         id="path4549" />
    </marker>
    <marker
       style="overflow:visible"
       id="marker4373"
       refX="0"
       refY="0"
       orient="auto"
       inkscape:stockid="DotM"
       inkscape:isstock="true">
      <path
         transform="matrix(0.4,0,0,0.4,2.96,0.4)"
         style="fill:#000000;fill-opacity:0;fill-rule:evenodd;stroke:#000000;stroke-width:1pt;stroke-opacity:1"
         d="m -2.5,-1 c 0,2.76 -2.24,5 -5,5 -2.76,0 -5,-2.24 -5,-5 0,-2.76 2.24,-5 5,-5 2.76,0 5,2.24 5,5 z"
         id="path4371" />
    </marker>
    <marker
       style="overflow:visible"
       id="marker4201"
       refX="0"
       refY="0"
       orient="auto"
       inkscape:stockid="DotM"
       inkscape:isstock="true">
      <path
         transform="matrix(0.4,0,0,0.4,2.96,0.4)"
         style="fill:#ececec;fill-opacity:1;fill-rule:evenodd;stroke:#000000;stroke-width:1pt;stroke-opacity:1"
         d="m -2.5,-1 c 0,2.76 -2.24,5 -5,5 -2.76,0 -5,-2.24 -5,-5 0,-2.76 2.24,-5 5,-5 2.76,0 5,2.24 5,5 z"
         id="path4199" />
    </marker>
    <marker
       style="overflow:visible"
       id="marker4035"
       refX="0"
       refY="0"
       orient="auto"
       inkscape:stockid="DotM"
       inkscape:isstock="true">
      <path
         transform="matrix(0.4,0,0,0.4,2.96,0.4)"
         style="fill:#ffff73;fill-opacity:0.329317;fill-rule:evenodd;stroke:#000000;stroke-width:1pt;stroke-opacity:1"
         d="m -2.5,-1 c 0,2.76 -2.24,5 -5,5 -2.76,0 -5,-2.24 -5,-5 0,-2.76 2.24,-5 5,-5 2.76,0 5,2.24 5,5 z"
         id="path4033" />
    </marker>
    <marker
       style="overflow:visible"
       id="marker3875"
       refX="0"
       refY="0"
       orient="auto"
       inkscape:stockid="DotM"
       inkscape:isstock="true">
      <path
         transform="matrix(0.4,0,0,0.4,2.96,0.4)"
         style="fill:#334e35;fill-opacity:0.393574;fill-rule:evenodd;stroke:#000000;stroke-width:1pt;stroke-opacity:1"
         d="m -2.5,-1 c 0,2.76 -2.24,5 -5,5 -2.76,0 -5,-2.24 -5,-5 0,-2.76 2.24,-5 5,-5 2.76,0 5,2.24 5,5 z"
         id="path3873" />
    </marker>
    <marker
       style="overflow:visible"
       id="marker3721"
       refX="0"
       refY="0"
       orient="auto"
       inkscape:stockid="DotM"
       inkscape:isstock="true">
      <path
         transform="matrix(0.4,0,0,0.4,2.96,0.4)"
         style="fill:#000000;fill-opacity:0;fill-rule:evenodd;stroke:#000000;stroke-width:1pt;stroke-opacity:1"
         d="m -2.5,-1 c 0,2.76 -2.24,5 -5,5 -2.76,0 -5,-2.24 -5,-5 0,-2.76 2.24,-5 5,-5 2.76,0 5,2.24 5,5 z"
         id="path3719" />
    </marker>
    <marker
       style="overflow:visible"
       id="marker3573"
       refX="0"
       refY="0"
       orient="auto"
       inkscape:stockid="DotM"
       inkscape:isstock="true">
      <path
         transform="matrix(0.4,0,0,0.4,2.96,0.4)"
         style="fill:#494479;fill-opacity:0.449799;fill-rule:evenodd;stroke:#000000;stroke-width:1pt;stroke-opacity:1"
         d="m -2.5,-1 c 0,2.76 -2.24,5 -5,5 -2.76,0 -5,-2.24 -5,-5 0,-2.76 2.24,-5 5,-5 2.76,0 5,2.24 5,5 z"
         id="path3571" />
    </marker>
    <marker
       style="overflow:visible"
       id="marker3431"
       refX="0"
       refY="0"
       orient="auto"
       inkscape:stockid="DotM"
       inkscape:isstock="true">
      <path
         transform="matrix(0.4,0,0,0.4,2.96,0.4)"
         style="fill:#a10000;fill-opacity:0.289157;fill-rule:evenodd;stroke:#000000;stroke-width:1pt;stroke-opacity:1"
         d="m -2.5,-1 c 0,2.76 -2.24,5 -5,5 -2.76,0 -5,-2.24 -5,-5 0,-2.76 2.24,-5 5,-5 2.76,0 5,2.24 5,5 z"
         id="path3429" />
    </marker>
    <marker
       style="overflow:visible"
       id="marker3295"
       refX="0"
       refY="0"
       orient="auto"
       inkscape:stockid="DotM"
       inkscape:isstock="true">
      <path
         transform="matrix(0.4,0,0,0.4,2.96,0.4)"
         style="fill:#000000;fill-opacity:1;fill-rule:evenodd;stroke:#000000;stroke-width:1pt;stroke-opacity:1"
         d="m -2.5,-1 c 0,2.76 -2.24,5 -5,5 -2.76,0 -5,-2.24 -5,-5 0,-2.76 2.24,-5 5,-5 2.76,0 5,2.24 5,5 z"
         id="path3293" />
    </marker>
    <marker
       style="overflow:visible"
       id="marker3165"
       refX="0"
       refY="0"
       orient="auto"
       inkscape:stockid="DotM"
       inkscape:isstock="true">
      <path
         transform="matrix(0.4,0,0,0.4,2.96,0.4)"
         style="fill:#000000;fill-opacity:0;fill-rule:evenodd;stroke:#000000;stroke-width:1pt;stroke-opacity:1"
         d="m -2.5,-1 c 0,2.76 -2.24,5 -5,5 -2.76,0 -5,-2.24 -5,-5 0,-2.76 2.24,-5 5,-5 2.76,0 5,2.24 5,5 z"
         id="path3163" />
    </marker>
    <marker
       style="overflow:visible"
       id="marker3041"
       refX="0"
       refY="0"
       orient="auto"
       inkscape:stockid="DotM"
       inkscape:isstock="true">
      <path
         transform="matrix(0.4,0,0,0.4,2.96,0.4)"
         style="fill:#000000;fill-opacity:0;fill-rule:evenodd;stroke:#000000;stroke-width:1pt;stroke-opacity:1"
         d="m -2.5,-1 c 0,2.76 -2.24,5 -5,5 -2.76,0 -5,-2.24 -5,-5 0,-2.76 2.24,-5 5,-5 2.76,0 5,2.24 5,5 z"
         id="path3039" />
    </marker>
    <marker
       style="overflow:visible"
       id="marker2923"
       refX="0"
       refY="0"
       orient="auto"
       inkscape:stockid="DotM"
       inkscape:isstock="true">
      <path
         transform="matrix(0.4,0,0,0.4,2.96,0.4)"
         style="fill:#000000;fill-opacity:0;fill-rule:evenodd;stroke:#000000;stroke-width:1pt;stroke-opacity:1"
         d="m -2.5,-1 c 0,2.76 -2.24,5 -5,5 -2.76,0 -5,-2.24 -5,-5 0,-2.76 2.24,-5 5,-5 2.76,0 5,2.24 5,5 z"
         id="path2921" />
    </marker>
    <marker
       style="overflow:visible"
       id="marker2811"
       refX="0"
       refY="0"
       orient="auto"
       inkscape:stockid="DotM"
       inkscape:isstock="true">
      <path
         transform="matrix(0.4,0,0,0.4,2.96,0.4)"
         style="fill:#ffff73;fill-opacity:0.329317;fill-rule:evenodd;stroke:#000000;stroke-width:1pt;stroke-opacity:1"
         d="m -2.5,-1 c 0,2.76 -2.24,5 -5,5 -2.76,0 -5,-2.24 -5,-5 0,-2.76 2.24,-5 5,-5 2.76,0 5,2.24 5,5 z"
         id="path2809" />
    </marker>
    <marker
       style="overflow:visible"
       id="marker2705"
       refX="0"
       refY="0"
       orient="auto"
       inkscape:stockid="DotM"
       inkscape:isstock="true">
      <path
         transform="matrix(0.4,0,0,0.4,2.96,0.4)"
         style="fill:#a10000;fill-opacity:0.290196;fill-rule:evenodd;stroke:#000000;stroke-width:1pt;stroke-opacity:1"
         d="m -2.5,-1 c 0,2.76 -2.24,5 -5,5 -2.76,0 -5,-2.24 -5,-5 0,-2.76 2.24,-5 5,-5 2.76,0 5,2.24 5,5 z"
         id="path2703" />
    </marker>
    <marker
       style="overflow:visible"
       id="marker2605"
       refX="0"
       refY="0"
       orient="auto"
       inkscape:stockid="DotM"
       inkscape:isstock="true">
      <path
         transform="matrix(0.4,0,0,0.4,2.96,0.4)"
         style="fill:#ffff73;fill-opacity:0.329317;fill-rule:evenodd;stroke:#000000;stroke-width:1pt;stroke-opacity:1"
         d="m -2.5,-1 c 0,2.76 -2.24,5 -5,5 -2.76,0 -5,-2.24 -5,-5 0,-2.76 2.24,-5 5,-5 2.76,0 5,2.24 5,5 z"
         id="path2603" />
    </marker>
    <marker
       style="overflow:visible"
       id="marker2511"
       refX="0"
       refY="0"
       orient="auto"
       inkscape:stockid="DotM"
       inkscape:isstock="true">
      <path
         transform="matrix(0.4,0,0,0.4,2.96,0.4)"
         style="fill:#494479;fill-opacity:0.449799;fill-rule:evenodd;stroke:#000000;stroke-width:1pt;stroke-opacity:1"
         d="m -2.5,-1 c 0,2.76 -2.24,5 -5,5 -2.76,0 -5,-2.24 -5,-5 0,-2.76 2.24,-5 5,-5 2.76,0 5,2.24 5,5 z"
         id="path2509" />
    </marker>
    <marker
       style="overflow:visible"
       id="marker2423"
       refX="0"
       refY="0"
       orient="auto"
       inkscape:stockid="DotM"
       inkscape:isstock="true">
      <path
         transform="matrix(0.4,0,0,0.4,2.96,0.4)"
         style="fill:#000000;fill-opacity:0.401606;fill-rule:evenodd;stroke:#000000;stroke-width:1pt;stroke-opacity:1"
         d="m -2.5,-1 c 0,2.76 -2.24,5 -5,5 -2.76,0 -5,-2.24 -5,-5 0,-2.76 2.24,-5 5,-5 2.76,0 5,2.24 5,5 z"
         id="path2421" />
    </marker>
    <marker
       style="overflow:visible"
       id="marker2341"
       refX="0"
       refY="0"
       orient="auto"
       inkscape:stockid="DotM"
       inkscape:isstock="true">
      <path
         transform="matrix(0.4,0,0,0.4,2.96,0.4)"
         style="fill:#000000;fill-opacity:0;fill-rule:evenodd;stroke:#000000;stroke-width:1pt;stroke-opacity:1"
         d="m -2.5,-1 c 0,2.76 -2.24,5 -5,5 -2.76,0 -5,-2.24 -5,-5 0,-2.76 2.24,-5 5,-5 2.76,0 5,2.24 5,5 z"
         id="path2339" />
    </marker>
    <marker
       style="overflow:visible"
       id="marker2265"
       refX="0"
       refY="0"
       orient="auto"
       inkscape:stockid="DotM"
       inkscape:isstock="true">
      <path
         transform="matrix(0.4,0,0,0.4,2.96,0.4)"
         style="fill:#ffff73;fill-opacity:0.329317;fill-rule:evenodd;stroke:#000000;stroke-width:1pt;stroke-opacity:1"
         d="m -2.5,-1 c 0,2.76 -2.24,5 -5,5 -2.76,0 -5,-2.24 -5,-5 0,-2.76 2.24,-5 5,-5 2.76,0 5,2.24 5,5 z"
         id="path2263" />
    </marker>
    <marker
       style="overflow:visible"
       id="marker2195"
       refX="0"
       refY="0"
       orient="auto"
       inkscape:stockid="DotM"
       inkscape:isstock="true">
      <path
         transform="matrix(0.4,0,0,0.4,2.96,0.4)"
         style="fill:#000000;fill-opacity:0;fill-rule:evenodd;stroke:#000000;stroke-width:1pt;stroke-opacity:1"
         d="m -2.5,-1 c 0,2.76 -2.24,5 -5,5 -2.76,0 -5,-2.24 -5,-5 0,-2.76 2.24,-5 5,-5 2.76,0 5,2.24 5,5 z"
         id="path2193" />
    </marker>
    <marker
       style="overflow:visible"
       id="marker2131"
       refX="0"
       refY="0"
       orient="auto"
       inkscape:stockid="DotM"
       inkscape:isstock="true">
      <path
         transform="matrix(0.4,0,0,0.4,2.96,0.4)"
         style="fill:#000000;fill-opacity:0.730924;fill-rule:evenodd;stroke:#000000;stroke-width:1pt;stroke-opacity:1"
         d="m -2.5,-1 c 0,2.76 -2.24,5 -5,5 -2.76,0 -5,-2.24 -5,-5 0,-2.76 2.24,-5 5,-5 2.76,0 5,2.24 5,5 z"
         id="path2129" />
    </marker>
    <marker
       style="overflow:visible"
       id="marker2073"
       refX="0"
       refY="0"
       orient="auto"
       inkscape:stockid="DotM"
       inkscape:isstock="true">
      <path
         transform="matrix(0.4,0,0,0.4,2.96,0.4)"
         style="fill:#334e35;fill-opacity:0.393574;fill-rule:evenodd;stroke:#000000;stroke-width:1pt;stroke-opacity:1"
         d="m -2.5,-1 c 0,2.76 -2.24,5 -5,5 -2.76,0 -5,-2.24 -5,-5 0,-2.76 2.24,-5 5,-5 2.76,0 5,2.24 5,5 z"
         id="path2071" />
    </marker>
    <marker
       style="overflow:visible"
       id="marker2021"
       refX="0"
       refY="0"
       orient="auto"
       inkscape:stockid="DotM"
       inkscape:isstock="true">
      <path
         transform="matrix(0.4,0,0,0.4,2.96,0.4)"
         style="fill:#ffff73;fill-opacity:0.329317;fill-rule:evenodd;stroke:#000000;stroke-width:1pt;stroke-opacity:1"
         d="m -2.5,-1 c 0,2.76 -2.24,5 -5,5 -2.76,0 -5,-2.24 -5,-5 0,-2.76 2.24,-5 5,-5 2.76,0 5,2.24 5,5 z"
         id="path2019" />
    </marker>
    <marker
       style="overflow:visible"
       id="marker1975"
       refX="0"
       refY="0"
       orient="auto"
       inkscape:stockid="DotM"
       inkscape:isstock="true">
      <path
         transform="matrix(0.4,0,0,0.4,2.96,0.4)"
         style="fill:#000000;fill-opacity:0;fill-rule:evenodd;stroke:#000000;stroke-width:1pt;stroke-opacity:1"
         d="m -2.5,-1 c 0,2.76 -2.24,5 -5,5 -2.76,0 -5,-2.24 -5,-5 0,-2.76 2.24,-5 5,-5 2.76,0 5,2.24 5,5 z"
         id="path1973" />
    </marker>
    <marker
       style="overflow:visible"
       id="marker1935"
       refX="0"
       refY="0"
       orient="auto"
       inkscape:stockid="DotM"
       inkscape:isstock="true">
      <path
         transform="matrix(0.4,0,0,0.4,2.96,0.4)"
         style="fill:#494479;fill-opacity:0.449799;fill-rule:evenodd;stroke:#000000;stroke-width:1pt;stroke-opacity:1"
         d="m -2.5,-1 c 0,2.76 -2.24,5 -5,5 -2.76,0 -5,-2.24 -5,-5 0,-2.76 2.24,-5 5,-5 2.76,0 5,2.24 5,5 z"
         id="path1933" />
    </marker>
    <marker
       style="overflow:visible"
       id="marker1901"
       refX="0"
       refY="0"
       orient="auto"
       inkscape:stockid="DotM"
       inkscape:isstock="true">
      <path
         transform="matrix(0.4,0,0,0.4,2.96,0.4)"
         style="fill:#000000;fill-opacity:0;fill-rule:evenodd;stroke:#000000;stroke-width:1pt;stroke-opacity:1"
         d="m -2.5,-1 c 0,2.76 -2.24,5 -5,5 -2.76,0 -5,-2.24 -5,-5 0,-2.76 2.24,-5 5,-5 2.76,0 5,2.24 5,5 z"
         id="path1899" />
    </marker>
    <linearGradient
       inkscape:collect="always"
       id="linearGradient1784">
      <stop
         style="stop-color:#000085;stop-opacity:1;"
         offset="0"
         id="stop1780" />
      <stop
         style="stop-color:#000000;stop-opacity:1"
         offset="1"
         id="stop1782" />
    </linearGradient>
    <linearGradient
       inkscape:collect="always"
       id="linearGradient1776">
      <stop
         style="stop-color:#000000;stop-opacity:1"
         offset="0"
         id="stop1772" />
      <stop
         style="stop-color:#666666;stop-opacity:1"
         offset="1"
         id="stop1774" />
    </linearGradient>
    <linearGradient
       inkscape:collect="always"
       id="linearGradient1754">
      <stop
         style="stop-color:#000000;stop-opacity:1"
         offset="0"
         id="stop1750" />
      <stop
         style="stop-color:#ffffff;stop-opacity:1"
         offset="1"
         id="stop1752" />
    </linearGradient>
    <marker
       style="overflow:visible"
       id="Arrow2Lstart"
       refX="0"
       refY="0"
       orient="auto"
       inkscape:stockid="Arrow2Lstart"
       inkscape:isstock="true">
      <path
         transform="matrix(1.1,0,0,1.1,1.1,0)"
         d="M 8.7185878,4.0337352 -2.2072895,0.01601326 8.7185884,-4.0017078 c -1.7454984,2.3720609 -1.7354408,5.6174519 -6e-7,8.035443 z"
         style="fill:#000000;fill-opacity:1;fill-rule:evenodd;stroke:#000000;stroke-width:0.625;stroke-linejoin:round;stroke-opacity:1"
         id="path911" />
    </marker>
    <marker
       style="overflow:visible"
       id="Arrow1Lstart"
       refX="0"
       refY="0"
       orient="auto"
       inkscape:stockid="Arrow1Lstart"
       inkscape:isstock="true">
      <path
         transform="matrix(0.8,0,0,0.8,10,0)"
         style="fill:#00ff00;fill-opacity:0.502008;fill-rule:evenodd;stroke:#00ff00;stroke-width:1pt;stroke-opacity:0.502008"
         d="M 0,0 5,-5 -12.5,0 5,5 Z"
         id="path893" />
    </marker>
    <radialGradient
       inkscape:collect="always"
       xlink:href="#linearGradient1754"
       id="radialGradient1756"
       cx="10.362472"
       cy="24.838306"
       fx="10.362472"
       fy="24.838306"
       r="1.2284341"
       gradientUnits="userSpaceOnUse"
       gradientTransform="matrix(5.1215394,-1.8780021,1.4694194,4.0072847,-98.840623,-55.098467)" />
    <linearGradient
       inkscape:collect="always"
       xlink:href="#linearGradient1776"
       id="linearGradient1778"
       x1="9.9219837"
       y1="26.444075"
       x2="9.9219837"
       y2="18.800613"
       gradientUnits="userSpaceOnUse"
       gradientTransform="rotate(-90,9.9218789,9.9218789)" />
    <linearGradient
       inkscape:collect="always"
       xlink:href="#linearGradient1784"
       id="linearGradient1786"
       x1="9.9217529"
       y1="7.7783346"
       x2="9.9218788"
       y2="15.770619"
       gradientUnits="userSpaceOnUse"
       gradientTransform="rotate(-90,9.9218789,9.9218789)" />
  </defs>
  <metadata
     id="metadata5">
    <rdf:RDF>
      <cc:Work
         rdf:about="">
        <dc:format>image/svg+xml</dc:format>
        <dc:type
           rdf:resource="http://purl.org/dc/dcmitype/StillImage" />
        <dc:title></dc:title>
      </cc:Work>
    </rdf:RDF>
  </metadata>
  <g
     inkscape:groupmode="layer"
     id="layer5"
     inkscape:label="Layer 4"
     style="display:inline"
     sodipodi:insensitive="true">
    <path
       style="display:inline;opacity:1;fill:#ffff00;fill-opacity:1;stroke:none;stroke-width:0.264583px;stroke-linecap:butt;stroke-linejoin:miter;stroke-opacity:1"
       d="m 6.0258341,12.415823 21.8761189,6.985707 1.319792,-2.380205 0.399039,-1.109557 V 3.9319895 L 27.901953,0.4422275 6.0258341,7.427935 Z"
       id="path1724" />
  </g>
  <g
     inkscape:groupmode="layer"
     id="layer4"
     inkscape:label="Layer 3"
     style="display:inline;opacity:1">
    <path
       id="path1609"
       style="fill:url(#linearGradient1778);fill-opacity:1;stroke:#000000;stroke-width:0.23812509;stroke-linecap:round;stroke-linejoin:round;stroke-miterlimit:4;stroke-dasharray:none;stroke-opacity:1"
       d="m 17.961903,11.476201 1.145151,0.97927 7.597987,0.183968 0.72812,-2.717665 -0.72812,-2.717663 -7.597987,0.184486 -1.145151,0.979268 z"
       sodipodi:nodetypes="cccccccc" />
    <path
       style="fill:#000000;fill-opacity:0;stroke:#000000;stroke-width:0.23812509;stroke-linecap:round;stroke-linejoin:round;stroke-miterlimit:4;stroke-dasharray:none;stroke-opacity:1"
       d="M 28.188394,15.646161 V 9.921879 h 1.43239 v 5.989889 z"
       id="path1412" />
    <path
       style="fill:#000000;fill-opacity:0;stroke:#000000;stroke-width:0.23812509;stroke-linecap:round;stroke-linejoin:round;stroke-miterlimit:4;stroke-dasharray:none;stroke-opacity:1"
       d="M 28.188394,15.646161 V 9.921879 h 1.43239 v 5.989889 z"
       id="path1327" />
    <path
       id="path1434"
       style="fill:#800080;stroke:#000000;stroke-width:0.23812509;stroke-linecap:round;stroke-linejoin:round;stroke-miterlimit:4;stroke-dasharray:none;stroke-opacity:1"
       d="m 1.3804878,9.921774 c 0,1.108474 0.2256287,1.37959 3.7470582,2.168861 H 6.0256821 L 6.0427481,9.921774 6.0256821,7.752915 H 5.127546 C 1.6061165,8.542186 1.3804878,8.813302 1.3804878,9.921774 Z" />
    <path
       style="fill:#a10000;fill-opacity:0.290196;stroke:#000000;stroke-width:0.23812509;stroke-linecap:round;stroke-linejoin:round;stroke-miterlimit:4;stroke-dasharray:none;stroke-opacity:1"
       d="M 7.7783346,9.922005 H 6.0426643 l 0.009,1.619368 6.4068297,1.188024 0.023,-2.807392 h -1.16896 l -0.0653,1.835905 -3.4506994,-0.468773 z"
       id="path1436"
       sodipodi:nodetypes="ccccccccc" />
    <path
       id="path1432"
       style="fill:url(#linearGradient1786);fill-opacity:1;stroke:#000000;stroke-width:0.23812509;stroke-linecap:round;stroke-linejoin:round;stroke-miterlimit:4;stroke-dasharray:none;stroke-opacity:1"
       d="m 7.7966336,11.289132 3.4509514,0.468707 0.06495,-1.836086 -0.06495,-1.836042 -3.4509514,0.468707 z"
       sodipodi:nodetypes="cccccc" />
    <path
       style="fill:#000000;fill-opacity:0;stroke:#000000;stroke-width:0.23812509;stroke-linecap:round;stroke-linejoin:round;stroke-miterlimit:4;stroke-dasharray:none;stroke-opacity:1"
       d="M 9.5749546,13.549166 V 12.194661 L 6.0258343,11.536544 v 0.879279 z"
       id="path1406" />
    <path
       style="fill:#494479;fill-opacity:0.449799;stroke:#000000;stroke-width:0.23812509;stroke-linecap:round;stroke-linejoin:round;stroke-miterlimit:4;stroke-dasharray:none;stroke-opacity:1"
       d="m 9.5749546,13.549166 v -1.354505 l 2.8837494,0.534736 v 1.740638 L 9.5749546,13.549166"
       id="path1408" />
    <path
       style="fill:#000000;fill-opacity:0.729412;stroke:#000000;stroke-width:0.23812509;stroke-linecap:round;stroke-linejoin:round;stroke-miterlimit:4;stroke-dasharray:none;stroke-opacity:1"
       d="m 15.775844,15.529297 v -2.184802 l -3.31714,-0.615098 v 1.740638 z"
       id="path1404" />
    <path
       style="fill:#000000;fill-opacity:0;stroke:#000000;stroke-width:0.23812509;stroke-linecap:round;stroke-linejoin:round;stroke-miterlimit:4;stroke-dasharray:none;stroke-opacity:1"
       d="m 12.458704,12.729397 0.0228,-2.807392 h 3.28975 l 0.005,3.422524 z"
       id="path1428"
       sodipodi:nodetypes="ccccc" />
    <path
       style="fill:#000000;fill-opacity:0.401606;stroke:#000000;stroke-width:0.23812509;stroke-linecap:round;stroke-linejoin:round;stroke-miterlimit:4;stroke-dasharray:none;stroke-opacity:1"
       d="m 12.914204,12.122511 h 0.85942 v -0.833374 h -0.85942 z"
       id="path1430" />
    <path
       style="fill:#494479;fill-opacity:0.449799;stroke:#000000;stroke-width:0.23812509;stroke-linecap:round;stroke-linejoin:round;stroke-miterlimit:4;stroke-dasharray:none;stroke-opacity:1"
       d="m 18.031824,15.169543 5.61718,1.667124 -0.005,-2.033141 -7.86834,-1.459031 v 2.184802 l 2.26609,0.723633 -0.0101,-1.083387"
       id="path1418" />
    <path
       id="path1426"
       style="fill:#a02c2c;fill-opacity:0.895582;stroke:#000000;stroke-width:0.23812509;stroke-linecap:round;stroke-linejoin:round;stroke-miterlimit:4;stroke-dasharray:none;stroke-opacity:1"
       d="m 15.77062,9.921879 0.0052,3.422531 0.744657,0.138493 0.0046,-3.561024 -0.0046,-3.561024 -0.744657,0.138493 z" />
    <path
       style="fill:#000000;fill-opacity:0;stroke:#000000;stroke-width:0.23812509;stroke-linecap:round;stroke-linejoin:round;stroke-miterlimit:4;stroke-dasharray:none;stroke-opacity:1"
       d="m 23.356474,13.541855 v -0.98354 l -4.24943,-0.102992 -1.14506,-0.979324 V 9.922005 h -1.43667 l -0.004,3.560671 z"
       id="path1424"
       sodipodi:nodetypes="cccccccc" />
    <path
       style="fill:#334e35;fill-opacity:0.393574;stroke:#000000;stroke-width:0.23812509;stroke-linecap:round;stroke-linejoin:round;stroke-miterlimit:4;stroke-dasharray:none;stroke-opacity:1"
       d="m 23.356474,13.541855 -6.83546,-0.05918 6.83546,1.267505 z"
       id="path1422" />
    <path
       style="fill:#000000;fill-opacity:0;stroke:#000000;stroke-width:0.23812509;stroke-linecap:round;stroke-linejoin:round;stroke-miterlimit:4;stroke-dasharray:none;stroke-opacity:1"
       d="m 23.654184,18.045011 -0.005,-1.208293 -5.61736,-1.667175 v 1.080156 z"
       id="path1402"
       sodipodi:nodetypes="ccccc" />
    <path
       id="path1442"
       style="fill:#ececec;stroke:#000000;stroke-width:0.23812509;stroke-linecap:round;stroke-linejoin:round;stroke-miterlimit:4;stroke-dasharray:none;stroke-opacity:1"
       d="m 18.800614,9.921774 c 0,1.681853 0.425617,1.848985 0.715716,1.848985 l 6.965985,0.208772 -0.03824,-2.057757 0.03824,-2.057239 -6.965985,0.208256 c -0.290099,0 -0.715716,0.167132 -0.715716,1.848983 z"
       sodipodi:nodetypes="scccccs" />
    <rect
       style="fill:#800080;fill-opacity:1;stroke:#000000;stroke-width:0.23812509;stroke-linecap:round;stroke-linejoin:round;stroke-miterlimit:4;stroke-dasharray:none;stroke-opacity:1;paint-order:markers fill stroke"
       id="rect1365"
       width="0.16276872"
       height="1.4974722"
       x="10.312527"
       y="-24.080126"
       transform="rotate(90)" />
    <path
       style="fill:#ffff73;fill-opacity:0.329317;stroke:#000000;stroke-width:0.23812509;stroke-linecap:round;stroke-linejoin:round;stroke-miterlimit:4;stroke-dasharray:none;stroke-opacity:1"
       d="m 26.664274,16.445822 -3.02009,-0.736608 0.01,2.335795 2.81805,0.899888 z"
       id="path1400"
       sodipodi:nodetypes="ccccc" />
    <path
       style="fill:#334e35;fill-opacity:0.393574;stroke:#000000;stroke-width:0.23812509;stroke-linecap:round;stroke-linejoin:round;stroke-miterlimit:4;stroke-dasharray:none;stroke-opacity:1"
       d="m 26.664274,16.44582 -0.19229,2.499077 1.42997,0.456633 1.31979,-2.380205 z"
       id="path1398"
       sodipodi:nodetypes="ccccc" />
    <path
       style="fill:#000000;fill-opacity:0;stroke:#000000;stroke-width:0.23812509;stroke-linecap:round;stroke-linejoin:round;stroke-miterlimit:4;stroke-dasharray:none;stroke-opacity:1"
       d="m 23.644184,15.709214 v -0.90569 l 5.9766,1.108244 -0.39904,1.109557 z"
       id="path1416" />
    <path
       style="fill:#494479;fill-opacity:0.449799;stroke:#000000;stroke-width:0.23812509;stroke-linecap:round;stroke-linejoin:round;stroke-miterlimit:4;stroke-dasharray:none;stroke-opacity:1"
       d="m 24.798384,15.01755 3.39001,-1.831215 v 2.459826 z"
       id="path1414" />
    <path
       style="fill:#a10000;fill-opacity:0.289157;stroke:#000000;stroke-width:0.23812509;stroke-linecap:round;stroke-linejoin:round;stroke-miterlimit:4;stroke-dasharray:none;stroke-opacity:1"
       d="m 23.356474,14.750176 v -2.191861 l 3.34852,0.08116 0.72818,-2.717594 h 0.75522 v 3.264456 l -3.39001,1.831215 z"
       id="path1420" />
    <path
       style="fill:#000000;stroke:#000000;stroke-width:0.23812509;stroke-linecap:round;stroke-linejoin:round;stroke-miterlimit:4;stroke-dasharray:none;stroke-opacity:1"
       d="m 30.356514,14.659548 -0.73573,0.197141 v -3.287592 l 0.74874,0.201833 z"
       id="path1355"
       sodipodi:nodetypes="ccccc" />
    <path
       style="fill:#000000;fill-opacity:0;stroke:#000000;stroke-width:0.23812509;stroke-linecap:round;stroke-linejoin:round;stroke-miterlimit:4;stroke-dasharray:none;stroke-opacity:1"
       d="m 28.188394,4.197597 v 5.724282 h 1.43239 V 3.9319895 Z"
       id="path1579" />
    <path
       style="fill:#000000;fill-opacity:0;stroke:#000000;stroke-width:0.23812509;stroke-linecap:round;stroke-linejoin:round;stroke-miterlimit:4;stroke-dasharray:none;stroke-opacity:1"
       d="m 28.188394,4.197597 v 5.724282 h 1.43239 V 3.9319895 Z"
       id="path1581" />
    <path
       style="fill:#000000;fill-opacity:0;stroke:#000000;stroke-width:0.23812509;stroke-linecap:round;stroke-linejoin:round;stroke-miterlimit:4;stroke-dasharray:none;stroke-opacity:1"
       d="M 7.7783346,9.921753 H 6.0426643 l 0.009,-1.619368 6.4068297,-1.188024 0.023,2.807392 h -1.16896 l -0.0653,-1.835905 -3.4506994,0.468773 z"
       id="path1585"
       sodipodi:nodetypes="ccccccccc" />
    <path
       style="fill:#ffff73;fill-opacity:0.329317;stroke:#000000;stroke-width:0.23812509;stroke-linecap:round;stroke-linejoin:round;stroke-miterlimit:4;stroke-dasharray:none;stroke-opacity:1"
       d="M 9.5749546,6.294592 V 7.649097 L 6.0258343,8.307214 V 7.427935 Z"
       id="path1589" />
    <path
       style="fill:#a10000;fill-opacity:0.290196;stroke:#000000;stroke-width:0.23812509;stroke-linecap:round;stroke-linejoin:round;stroke-miterlimit:4;stroke-dasharray:none;stroke-opacity:1"
       d="M 9.5749546,6.294592 V 7.649097 L 12.458704,7.114361 V 5.373723 L 9.5749546,6.294592"
       id="path1591" />
    <path
       style="fill:#ffff73;fill-opacity:0.329317;stroke:#000000;stroke-width:0.23812509;stroke-linecap:round;stroke-linejoin:round;stroke-miterlimit:4;stroke-dasharray:none;stroke-opacity:1"
       d="m 15.775844,4.314461 v 2.184802 l -3.31714,0.615098 V 5.373723 Z"
       id="path1593" />
    <path
       style="fill:#494479;fill-opacity:0.449799;stroke:#000000;stroke-width:0.23812509;stroke-linecap:round;stroke-linejoin:round;stroke-miterlimit:4;stroke-dasharray:none;stroke-opacity:1"
       d="m 12.458704,7.114361 0.0228,2.807392 h 3.28975 l 0.005,-3.422524 z"
       id="path1595"
       sodipodi:nodetypes="ccccc" />
    <path
       style="fill:#000000;fill-opacity:0.401606;stroke:#000000;stroke-width:0.23812509;stroke-linecap:round;stroke-linejoin:round;stroke-miterlimit:4;stroke-dasharray:none;stroke-opacity:1"
       d="m 12.914204,7.721247 h 0.85942 v 0.833374 h -0.85942 z"
       id="path1597" />
    <path
       style="fill:#000000;fill-opacity:0;stroke:#000000;stroke-width:0.23812509;stroke-linecap:round;stroke-linejoin:round;stroke-miterlimit:4;stroke-dasharray:none;stroke-opacity:1"
       d="m 18.031824,4.674215 5.61718,-1.6671245 -0.005,2.0331415 -7.86834,1.459031 V 4.314461 l 2.26609,-0.7236335 -0.0101,1.0833875"
       id="path1599" />
    <path
       style="fill:#ffff73;fill-opacity:0.329317;stroke:#000000;stroke-width:0.23812509;stroke-linecap:round;stroke-linejoin:round;stroke-miterlimit:4;stroke-dasharray:none;stroke-opacity:1"
       d="m 23.356474,6.301903 v 0.98354 l -4.24943,0.102992 -1.14506,0.979324 v 1.553994 h -1.43667 l -0.004,-3.560671 z"
       id="path1603"
       sodipodi:nodetypes="cccccccc" />
    <path
       style="fill:#46342e;fill-opacity:0.85943776;stroke:#000000;stroke-width:0.23812509;stroke-linecap:round;stroke-linejoin:round;stroke-miterlimit:4;stroke-dasharray:none;stroke-opacity:1"
       d="m 23.356474,6.301903 -6.83546,0.05918 6.83546,-1.267505 z"
       id="path1605" />
    <path
       style="fill:#000000;fill-opacity:0.730924;stroke:#000000;stroke-width:0.23812509;stroke-linecap:round;stroke-linejoin:round;stroke-miterlimit:4;stroke-dasharray:none;stroke-opacity:1"
       d="m 23.654184,1.7987465 -0.005,1.208293 -5.61736,1.6671755 V 3.5940585 Z"
       id="path1607"
       sodipodi:nodetypes="ccccc" />
    <rect
       style="fill:#800080;fill-opacity:1;stroke:#000000;stroke-width:0.23812509;stroke-linecap:round;stroke-linejoin:round;stroke-miterlimit:4;stroke-dasharray:none;stroke-opacity:1;paint-order:markers fill stroke"
       id="rect1613"
       width="0.16276872"
       height="1.4974722"
       x="-9.5312309"
       y="-24.080128"
       transform="matrix(0,-1,-1,0,0,0)" />
    <path
       style="fill:#334e35;fill-opacity:0.393574;stroke:#000000;stroke-width:0.23812509;stroke-linecap:round;stroke-linejoin:round;stroke-miterlimit:4;stroke-dasharray:none;stroke-opacity:1"
       d="m 26.664274,3.3979355 -3.02009,0.7366085 0.01,-2.3357955 2.81805,-0.899888 z"
       id="path1615"
       sodipodi:nodetypes="ccccc" />
    <path
       style="fill:#ffff73;fill-opacity:0.329317;stroke:#000000;stroke-width:0.23812509;stroke-linecap:round;stroke-linejoin:round;stroke-miterlimit:4;stroke-dasharray:none;stroke-opacity:1"
       d="m 26.664274,3.3979375 -0.19229,-2.499077 1.42997,-0.456633 1.31979,2.380205 z"
       id="path1617"
       sodipodi:nodetypes="ccccc" />
    <path
       style="fill:#000000;fill-opacity:0;stroke:#000000;stroke-width:0.23812509;stroke-linecap:round;stroke-linejoin:round;stroke-miterlimit:4;stroke-dasharray:none;stroke-opacity:1"
       d="m 23.644184,4.134544 v 0.90569 l 5.9766,-1.1082445 -0.39904,-1.109557 z"
       id="path1619" />
    <path
       style="fill:#494479;fill-opacity:0.449799;stroke:#000000;stroke-width:0.23812509;stroke-linecap:round;stroke-linejoin:round;stroke-miterlimit:4;stroke-dasharray:none;stroke-opacity:1"
       d="m 24.798384,4.826208 3.39001,1.831215 V 4.197597 Z"
       id="path1621" />
    <path
       style="fill:#000000;fill-opacity:0;stroke:#000000;stroke-width:0.23812509;stroke-linecap:round;stroke-linejoin:round;stroke-miterlimit:4;stroke-dasharray:none;stroke-opacity:1"
       d="m 23.356474,5.093582 v 2.191861 l 3.34852,-0.08116 0.72818,2.717594 h 0.75522 V 6.657421 l -3.39001,-1.831215 z"
       id="path1623" />
    <path
       style="fill:#000000;stroke:#000000;stroke-width:0.23812509;stroke-linecap:round;stroke-linejoin:round;stroke-miterlimit:4;stroke-dasharray:none;stroke-opacity:1"
       d="m 30.356514,5.18421 -0.73573,-0.197141 v 3.287592 l 0.74874,-0.201833 z"
       id="path1625"
       sodipodi:nodetypes="ccccc" />
    <circle
       style="fill:url(#radialGradient1756);fill-opacity:1;stroke:#000000;stroke-width:0.23812509;stroke-linecap:round;stroke-linejoin:round;stroke-miterlimit:4;stroke-dasharray:none;stroke-opacity:1;paint-order:markers fill stroke"
       id="path1363"
       cx="-9.9220057"
       cy="24.584309"
       r="1.0961426"
       transform="rotate(-90)" />
  </g>
</svg>
