<?xml version="1.0" encoding="UTF-8" standalone="no"?>
<svg
   xmlns:dc="http://purl.org/dc/elements/1.1/"
   xmlns:cc="http://creativecommons.org/ns#"
   xmlns:rdf="http://www.w3.org/1999/02/22-rdf-syntax-ns#"
   xmlns:svg="http://www.w3.org/2000/svg"
   xmlns="http://www.w3.org/2000/svg"
   xmlns:xlink="http://www.w3.org/1999/xlink"
   width="319.07675mm"
   height="182.45503mm"
   viewBox="0 0 319.07675 182.45503"
   version="1.1"
   id="svg940">
  <defs
     id="defs934">
    <linearGradient
       id="linearGradient946">
      <stop
         style="stop-color:#8b7866;stop-opacity:0.80241936"
         offset="0"
         id="stop942" />
      <stop
         style="stop-color:#8b7866;stop-opacity:0.29838711"
         offset="1"
         id="stop944" />
    </linearGradient>
    <mask
       maskUnits="userSpaceOnUse"
       id="mask1561">
      <rect
         style="fill:#c8b7b7;fill-opacity:0.95;stroke:#000000;stroke-width:0.238125;stroke-linecap:round;stroke-linejoin:round;paint-order:markers fill stroke"
         id="rect1563"
         width="361.34839"
         height="191.89952"
         x="-48.108513"
         y="176.93242" />
    </mask>
    <radialGradient
       xlink:href="#linearGradient946"
       id="radialGradient940"
       gradientUnits="userSpaceOnUse"
       gradientTransform="matrix(-1.3724659,0,0,-1.2559014,1453.4772,409.26144)"
       cx="612.6441"
       cy="51.330879"
       fx="612.6441"
       fy="51.330879"
       r="245.46853" />
    <radialGradient
       xlink:href="#linearGradient946"
       id="radialGradient954"
       gradientUnits="userSpaceOnUse"
       gradientTransform="matrix(-0.3631316,0,0,0.33229057,384.56584,74.170232)"
       cx="612.6441"
       cy="51.330879"
       fx="612.6441"
       fy="51.330879"
       r="245.46853" />
  </defs>
  <metadata
     id="metadata937">
    <rdf:RDF>
      <cc:Work
         rdf:about="">
        <dc:format>image/svg+xml</dc:format>
        <dc:type
           rdf:resource="http://purl.org/dc/dcmitype/StillImage" />
        <dc:title></dc:title>
      </cc:Work>
    </rdf:RDF>
  </metadata>
  <g
     id="layer1"
     transform="translate(91.666522,-13.400646)"
     style="display:inline" />
  <g
     id="layer4">
    <path
       id="path986"
       style="display:inline;opacity:1;fill:#ffff00;fill-opacity:0.802419;stroke:none;stroke-width:5;stroke-linecap:round;stroke-linejoin:round;stroke-miterlimit:4;stroke-dasharray:none;stroke-opacity:1;paint-order:markers fill stroke"
       d="M 651.4668,56.935547 C 500.54535,56.935774 366.12201,134.31073 316.33789,249.83789 h -0.66601 c -81.73801,-3.16267 -138.74791,4.27333 -203.03907,8.58789 -53.824552,7.52806 -60.318365,49.07726 -72.732419,86.36914 12.414054,37.29187 18.907867,78.84108 72.732419,86.36914 64.29116,4.31456 121.30105,11.75056 203.03907,8.58789 h 0.66601 c 49.78412,115.52715 184.20747,192.9021 335.12891,192.90235 53.66162,-4e-5 106.62501,-9.86444 154.9082,-28.85157 l 27.01758,27.08594 125.64648,-116.93164 -15.66015,-21.67773 h 75.86519 c 9.6804,-10.94336 19.3607,-21.88669 29.0411,-32.83008 h 58.2089 c 0,-76.43555 0,-152.87109 0,-229.30664 h -58.2109 c -9.6797,-10.94271 -19.3593,-21.88542 -29.0391,-32.82813 H 943.375 L 959.03906,175.63281 833.39258,58.701172 806.375,85.787109 C 758.09184,66.799972 705.12842,56.935585 651.4668,56.935547 Z"
       transform="scale(0.26458333)" />
  </g>
  <g
     id="layer2"
     style="display:inline;opacity:1">
    <path
       id="path952"
       style="opacity:1;fill:url(#radialGradient954);fill-opacity:1;stroke:#000000;stroke-width:1.32292;stroke-linecap:round;stroke-linejoin:round;stroke-miterlimit:4;stroke-dasharray:none;stroke-opacity:1;paint-order:markers fill stroke"
       d="m 83.697732,66.102942 c 13.172049,-30.56656 48.738228,-51.03868 88.669528,-51.03874 14.19797,10e-6 28.2112,2.60996 40.98612,7.63364 l -43.29348,43.4051 z" />
    <path
       id="path1585"
       style="opacity:1;fill:url(#radialGradient940);fill-opacity:1;stroke:#000000;stroke-width:5;stroke-linecap:round;stroke-linejoin:round;stroke-miterlimit:4;stroke-dasharray:none;stroke-opacity:1;paint-order:markers fill stroke"
       d="m 316.33789,439.75195 c 49.78412,115.52715 184.20747,192.9021 335.12891,192.90235 53.66162,-4e-5 106.62501,-9.86444 154.9082,-28.85157 L 642.74609,439.75195 Z"
       transform="scale(0.26458333)" />
    <path
       id="path1596"
       style="fill:#554a3f;fill-opacity:0.69999999;stroke:#000000;stroke-width:1.32292;stroke-linecap:butt;stroke-linejoin:miter;stroke-miterlimit:4;stroke-dasharray:none;stroke-opacity:1"
       d="M 220.50178,15.531352 170.0599,66.102942 H 83.521517 c -21.626515,-0.83679 -36.710384,1.13066 -53.720753,2.27222 -14.24108,1.9918 -15.959234,12.98502 -19.243786,22.851831 3.284552,9.866807 5.002706,20.860037 19.243786,22.851837 17.010369,1.14156 32.094236,3.109 53.720753,2.27221 H 170.0599 l 50.44188,50.57159 33.24397,-30.93816 -32.33498,-44.757477 32.33498,-44.757471 z" />
    <path
       style="fill:#605246;fill-opacity:1;stroke:#000000;stroke-width:1.32292;stroke-linecap:butt;stroke-linejoin:miter;stroke-miterlimit:4;stroke-dasharray:none;stroke-opacity:0.898039"
       d="M 292.75989,60.892 V 76.918155 H 212.23363 L 217.29336,60.892 Z"
       id="path1657" />
    <path
       style="fill:#605246;fill-opacity:1;stroke:#000000;stroke-width:1.32292;stroke-linecap:butt;stroke-linejoin:miter;stroke-miterlimit:4;stroke-dasharray:none;stroke-opacity:0.898039"
       d="m 292.75989,121.56261 v -16.02616 h -80.52626 l 5.05973,16.02616 z"
       id="path1659" />
    <path
       id="path1670"
       style="fill:#ffff00;stroke:none;stroke-width:0.999999px;stroke-linecap:butt;stroke-linejoin:miter;stroke-opacity:1"
       d="m 717.9668,115.2793 -53.91797,52.14843 26.5,34.48633 59.11914,-59.27344 z"
       transform="scale(0.26458333)" />
    <path
       style="fill:#383029;fill-opacity:1;stroke:#000000;stroke-width:1.32292;stroke-linecap:butt;stroke-linejoin:miter;stroke-miterlimit:4;stroke-dasharray:none;stroke-opacity:0.898039"
       d="m 243.21844,113.92219 56.88544,5.10267 -7.3469,-7.18154 h -49.53854 z"
       id="path859" />
    <path
       style="fill:#383029;fill-opacity:1;stroke:#000000;stroke-width:1.32292;stroke-linecap:butt;stroke-linejoin:miter;stroke-miterlimit:4;stroke-dasharray:none;stroke-opacity:0.898039"
       d="m 243.21844,68.531792 56.88544,-5.10267 -7.3469,7.18154 h -49.53854 z"
       id="path864" />
    <path
       id="path1632"
       style="fill:#554a3f;fill-opacity:0.898039;stroke:#000000;stroke-width:1.32292;stroke-linecap:butt;stroke-linejoin:miter;stroke-miterlimit:4;stroke-dasharray:none;stroke-opacity:1"
       d="m 243.3267,121.56261 c 2.0918,2.89543 4.18359,5.79086 6.27539,8.68629 H 269.675 c 2.56127,-2.89543 5.12252,-5.79086 7.68379,-8.6863 -11.34404,1e-5 -22.68806,1e-5 -34.03209,1e-5 z" />
    <path
       id="path904"
       style="fill:#554a3f;fill-opacity:0.898039;stroke:#000000;stroke-width:1.32292;stroke-linecap:butt;stroke-linejoin:miter;stroke-miterlimit:4;stroke-dasharray:none;stroke-opacity:1"
       d="m 231.74817,76.918155 -10.3374,14.308833 10.33785,14.309462 c 20.33709,-9e-5 40.67418,-1.7e-4 61.01127,-2.6e-4 V 76.9183 c -20.33725,-4.7e-5 -40.67448,-9.7e-5 -61.01172,-1.45e-4 z" />
    <path
       id="path906"
       style="fill:#554a3f;fill-opacity:0.898039;stroke:#000000;stroke-width:1.32292;stroke-linecap:butt;stroke-linejoin:miter;stroke-miterlimit:4;stroke-dasharray:none;stroke-opacity:1"
       d="m 249.60136,52.206114 c -2.09171,2.895296 -4.18341,5.790592 -6.27511,8.685887 l 34.03201,-1.11e-4 c -2.56109,-2.895258 -5.12217,-5.790517 -7.68326,-8.685776 z" />
    <path
       style="fill:#cd0000;stroke:#000000;stroke-width:1.32292;stroke-linecap:butt;stroke-linejoin:miter;stroke-miterlimit:4;stroke-dasharray:none;stroke-opacity:1;fill-opacity:1"
       d="m 247.25156,121.56261 -4.23334,-16.02616 h -3.79709 l 4.53056,16.02616 z"
       id="path1661" />
    <path
       style="fill:#cd0000;stroke:#000000;stroke-width:1.32292;stroke-linecap:butt;stroke-linejoin:miter;stroke-miterlimit:4;stroke-dasharray:none;stroke-opacity:1;fill-opacity:1"
       d="m 247.25156,60.890965 -4.23334,16.02616 h -3.79709 l 4.53056,-16.02616 z"
       id="path1663" />
  </g>
  <g
     id="layer3">
    <path
       id="rect1665"
       style="display:inline;opacity:1;fill:#cd0000;fill-opacity:1;stroke:#000000;stroke-width:5.00000006;stroke-linecap:round;stroke-linejoin:round;stroke-miterlimit:4;stroke-dasharray:none;stroke-opacity:1;paint-order:markers fill stroke"
       d="M 49.998047 313.61133 C 46.331168 323.78991 43.342442 334.45499 39.900391 344.79492 L 836.82812 344.79492 L 859.35742 313.61133 L 49.998047 313.61133 z "
       transform="scale(0.26458333)" />
    <path
       id="path1677"
       style="display:inline;opacity:1;fill:#cd0000;stroke:#000000;stroke-width:1.32291667;stroke-linecap:butt;stroke-linejoin:miter;stroke-opacity:1;stroke-miterlimit:4;stroke-dasharray:none;fill-opacity:1"
       d="m 189.96205,151.953 -14.2658,-13.79761 7.01146,-9.12451 15.64194,15.68277 z" />
    <path
       id="path866"
       style="display:inline;opacity:1;fill:#cd0000;stroke:#000000;stroke-width:5.00000006;stroke-linecap:butt;stroke-linejoin:miter;stroke-opacity:1;stroke-miterlimit:4;stroke-dasharray:none;fill-opacity:1"
       d="M 865.33984 88.433594 L 821.12695 129.54688 L 893.08398 185.75195 L 929.58008 148.2168 L 865.33984 88.433594 z "
       transform="scale(0.26458333)" />
    <path
       id="path871"
       style="display:inline;opacity:1;fill:#cd0000;stroke:#000000;stroke-width:1.32291667;stroke-linecap:butt;stroke-linejoin:miter;stroke-opacity:1;stroke-miterlimit:4;stroke-dasharray:none;fill-opacity:1"
       d="m 189.96205,30.500982 -14.2658,13.79761 7.01146,9.12451 15.64194,-15.68277 z" />
    <path
       id="path873"
       style="display:inline;opacity:1;fill:#cd0000;stroke:#000000;stroke-width:1.32291667;stroke-linecap:butt;stroke-linejoin:miter;stroke-opacity:1;stroke-miterlimit:4;stroke-dasharray:none;fill-opacity:1"
       d="m 228.9545,159.05593 -11.698,-10.87789 19.03863,-14.87093 9.65626,9.93118 z" />
    <path
       style="display:inline;opacity:1;fill:#0000ff;stroke:#000000;stroke-width:1.32291667;stroke-linecap:butt;stroke-linejoin:miter;stroke-opacity:1;stroke-miterlimit:4;stroke-dasharray:none"
       d="m 235.99402,63.065363 -3.74202,11.679429 -15.25584,0 3.68739,-11.679429 z"
       id="path853" />
    <path
       style="display:inline;opacity:1;fill:#0000ff;stroke:#000000;stroke-width:1.32291667;stroke-linecap:butt;stroke-linejoin:miter;stroke-opacity:1;stroke-miterlimit:4;stroke-dasharray:none"
       d="M 235.99402,119.38861 232.252,107.70918 h -15.25584 l 3.68739,11.67943 z"
       id="path855" />
    <path
       id="path861"
       style="display:inline;opacity:1;fill:#0000ff;stroke:#000000;stroke-width:1.32291667;stroke-linecap:butt;stroke-linejoin:miter;stroke-opacity:1;stroke-miterlimit:4;stroke-dasharray:none"
       d="m 47.477719,79.28816 -22.851318,1.970422 c 0,3.170224 0,19.936818 0,19.936818 l 22.851318,1.97042 V 91.22699 Z" />
  </g>
</svg>
